<?xml version="1.0" encoding="UTF-8"?>
<svg version="1.1" xmlns="http://www.w3.org/2000/svg" width="220" height="220">
<path d="M0 0 C72.6 0 145.2 0 220 0 C220 72.6 220 145.2 220 220 C147.4 220 74.8 220 0 220 C0 147.4 0 74.8 0 0 Z " fill="#4D43FE" transform="translate(0,0)"/>
<path d="M0 0 C8.25 0 16.5 0 25 0 C24.67 1.98 24.34 3.96 24 6 C25.73640738 8.440748 27.2935789 10.2538552 29.4140625 12.30859375 C29.98071625 12.87957291 30.54737 13.45055206 31.13119507 14.03883362 C32.33173992 15.23975947 33.54103786 16.43198967 34.75830078 17.6159668 C36.62065361 19.43325877 38.44579804 21.28271462 40.26953125 23.13867188 C41.44064212 24.30156369 42.61375535 25.46244318 43.7890625 26.62109375 C44.33511139 27.17615097 44.88116028 27.73120819 45.4437561 28.30308533 C47.70911058 30.47260979 49.28265859 31.92240725 52.46020508 32.26611328 C56.37629526 30.31390299 58.92125737 27.32502139 61.84765625 24.12109375 C63.18822973 22.71042493 64.53006761 21.3009568 65.87304688 19.89257812 C67.97127153 17.67079871 70.05879779 15.4415353 72.12475586 13.18969727 C83.65169872 0.68302618 83.65169872 0.68302618 89.50439453 -1.01928711 C98.89956819 -1.14636534 106.49673231 2.78917933 113.2734375 9.06640625 C119.07717912 15.56607164 120.489213 23.21234556 120.40625 31.6953125 C119.52985969 38.82441056 115.99604062 45.51678946 110.8125 50.5 C99.46986043 58.43652568 87.17041194 57.52717881 73.92578125 57.390625 C71.78916455 57.38315365 69.65254095 57.37746495 67.51591492 57.37347412 C61.92465908 57.35828821 56.33382671 57.31906765 50.74273682 57.2746582 C44.01704914 57.2263107 37.29121894 57.20813794 30.5654068 57.18484497 C20.37664442 57.14621207 10.18880903 57.06950865 0 57 C0 38.19 0 19.38 0 0 Z " fill="#FDFDFE" transform="translate(51,113)"/>
<path d="M0 0 C0.94726456 -0.00043808 1.89452911 -0.00087616 2.87049866 -0.00132751 C5.97638137 0.00074904 9.08171253 0.02402657 12.1875 0.04760742 C14.35082708 0.0532074 16.51415798 0.0574756 18.67749023 0.06047058 C24.35254546 0.07188764 30.02736787 0.10132785 35.70233154 0.13458252 C42.52143035 0.1707673 49.3406073 0.18445949 56.15977478 0.20194244 C66.50251144 0.23096696 76.84473793 0.28847644 87.1875 0.34057617 C87.1875 19.15057617 87.1875 37.96057617 87.1875 57.34057617 C79.2675 57.34057617 71.3475 57.34057617 63.1875 57.34057617 C63.5175 55.36057617 63.8475 53.38057617 64.1875 51.34057617 C62.45109262 48.89982817 60.8939211 47.08672097 58.7734375 45.03198242 C58.20678375 44.46100327 57.64013 43.89002411 57.05630493 43.30174255 C55.85576008 42.1008167 54.64646214 40.9085865 53.42919922 39.72460938 C51.56684639 37.9073174 49.74170196 36.05786155 47.91796875 34.2019043 C46.74685788 33.03901249 45.57374465 31.87813299 44.3984375 30.71948242 C43.85238861 30.1644252 43.30633972 29.60936798 42.7437439 29.03749084 C40.47838942 26.86796639 38.90484141 25.41816892 35.72729492 25.07446289 C31.81120474 27.02667319 29.26624263 30.01555478 26.33984375 33.21948242 C24.99927027 34.63015125 23.65743239 36.03961937 22.31445312 37.44799805 C20.21622847 39.66977746 18.12870221 41.89904087 16.06274414 44.15087891 C4.54743274 56.64492992 4.54743274 56.64492992 -1.29272461 58.36645508 C-9.08122638 58.48499788 -15.94947628 55.62327201 -22.5625 51.71557617 C-30.26190332 43.58842822 -32.38781328 35.22001597 -32.14453125 24.36401367 C-31.65650142 15.68391111 -26.60334945 10.6517644 -20.38671875 5.06713867 C-13.7921196 0.64405396 -7.71809078 -0.0947852 0 0 Z " fill="#FDFCFE" transform="translate(80.8125,49.659423828125)"/>
</svg>
