<svg version="1.1" id="svg5275" xmlns:cc="http://creativecommons.org/ns#" xmlns:dc="http://purl.org/dc/elements/1.1/" xmlns:rdf="http://www.w3.org/1999/02/22-rdf-syntax-ns#" xmlns:svg="http://www.w3.org/2000/svg" xmlns="http://www.w3.org/2000/svg" xmlns:xlink="http://www.w3.org/1999/xlink" x="0px" y="0px" viewBox="0 0 105.41 91.37" style="enable-background:new 0 0 105.41 91.37;" xml:space="preserve">
 <style type="text/css">
  .st0{fill:#800000;}
 </style>
 <g id="layer1" transform="translate(0,-975.0021)">
  <g id="g870" transform="matrix(1.25,0,0,-1.25,-105.9329,1209.4024)">
   <g>
    <g id="g872">
     <g id="g878" transform="translate(152.12037,128.09225)">
      <path id="path880" class="st0" d="M16.96-13.66H-9.27L-25.2,14.11H1.03L16.96-13.66z">
      </path>
     </g>
     <g id="g882" transform="translate(119.40257,184.69385)">
      <path id="path884" class="st0" d="M7.42,2.83l13.15-22.62L-8.48-70.27h-26.18L7.42,2.83z">
      </path>
     </g>
     <g id="g918" transform="translate(165.1929,745.4365)">
     </g>
     <g id="g922" transform="translate(176.3745,741.2793)">
     </g>
     <g id="g926" transform="translate(191.0835,738.4111)">
     </g>
     <g id="g930" transform="translate(199.6548,737.5127)">
     </g>
     <g id="g934" transform="translate(209.2886,741.2793)">
     </g>
     <g id="g938" transform="translate(218.3384,738.834)">
     </g>
     <g id="g946" transform="translate(248.6567,744.8008)">
     </g>
     <g id="g950" transform="translate(270.3052,738.4111)">
     </g>
     <g id="g954" transform="translate(281.4688,741.8018)">
     </g>
     <g id="g958" transform="translate(287.6128,736.2432)">
     </g>
     <g id="g962" transform="translate(293.7358,736.2432)">
     </g>
     <g id="g966" transform="translate(301.3027,735.998)">
     </g>
     <g id="g970" transform="translate(477.728,396.7266)">
     </g>
     <g id="g974" transform="translate(484.7734,402.8027)">
     </g>
     <g id="g978" transform="translate(495.3481,402.8027)">
     </g>
     <g id="g982" transform="translate(507.0415,402.4258)">
     </g>
     <g id="g986" transform="translate(517.2656,396.7266)">
     </g>
     <g id="g990" transform="translate(524.3105,402.4258)">
     </g>
     <g id="g994" transform="translate(535.8149,398.2354)">
     </g>
     <g id="g998" transform="translate(542.0386,402.4258)">
     </g>
     <g id="g1002" transform="translate(550.8892,398.1543)">
     </g>
     <g id="g1006" transform="translate(563.6606,394.7861)">
     </g>
     <g id="g1010" transform="translate(569.1421,398.2354)">
     </g>
     <g id="g1014" transform="translate(577.0493,401.334)">
     </g>
     <g id="g1018" transform="translate(591.8413,392.792)">
     </g>
     <g id="g1022" transform="translate(599.4927,397.5215)">
     </g>
     <g id="g1026" transform="translate(605.1235,401.334)">
     </g>
     <g id="g1030" transform="translate(613.2056,401.334)">
     </g>
     <g id="g1036" transform="translate(626.3535,401.334)">
     </g>
     <g id="g1040" transform="translate(637.3193,392.792)">
     </g>
    </g>
   </g>
  </g>
 </g>
</svg>