<svg version="1.1" id="Layer_1" xmlns="http://www.w3.org/2000/svg" xmlns:xlink="http://www.w3.org/1999/xlink" x="0px" y="0px" viewBox="0 0 133 72.1" style="enable-background:new 0 0 133 72.1;" xml:space="preserve">
 <style type="text/css">
  .st0{fill:#E31837;}
	.st1{fill:#012169;}
 </style>
 <g>
  <path class="st0" d="M77.6,69.1c0-1.6,1.3-2.9,3-2.9s3,1.3,3,2.9s-1.3,3-3,3S77.6,70.8,77.6,69.1 M78.2,69.1c0,1.3,1.1,2.4,2.5,2.4
		c1.3,0,2.4-1,2.4-2.4c0-1.3-1.1-2.3-2.4-2.3C79.2,66.8,78.2,67.9,78.2,69.1">
  </path>
  <path class="st0" d="M82.1,70.8h-0.6l-1-1.5h-0.6v1.5h-0.4v-3.3H81c0.3,0,0.6,0,0.8,0.2c0.3,0.1,0.4,0.4,0.4,0.7
		c0,0.6-0.5,0.9-1.1,0.9L82.1,70.8L82.1,70.8z M80.5,68.9c0.5,0,1.1,0.1,1.1-0.5c0-0.4-0.4-0.5-0.8-0.5h-0.9v1H80.5L80.5,68.9z">
  </path>
  <path class="st0" d="M66.3,72.1c21-18,50.5-35.5,66.7-41.8c-2.5-1.6-6.4-3.9-10.8-6.4c-20.9,6.9-45.3,22.2-67.1,39.5
		C58.8,66.2,62.7,69.1,66.3,72.1L66.3,72.1z">
  </path>
  <path class="st1" d="M56.7,23.2c-3.1-1.5-6.5-2.9-9.1-4.1c-7.9,3.9-18.2,9.8-31.2,19.1c2.8,1.5,5.8,3.3,9,5.1
		C35.4,35.9,45.5,28.9,56.7,23.2z">
  </path>
  <path class="st0" d="M75.4,14.6c-3.8-2.1-17-7-26.1-9.1c-2.7,1-6.5,2.5-9.1,3.6c3.3,0.9,15.6,4.2,26.1,9.5
		C69,17.3,72.8,15.7,75.4,14.6z">
  </path>
  <path class="st1" d="M30.7,13.3C19,18.7,6.7,26.1,0,30.4c2.4,1.1,4.8,2,8.1,3.6c14.8-10,26.4-16.1,31-18.1
		C35.8,14.7,32.7,13.9,30.7,13.3L30.7,13.3z">
  </path>
  <path class="st0" d="M84.2,11.5c2.7-0.9,5.8-1.7,8.5-2.5c-7.8-3.3-17.6-6.8-26.4-9c-1.4,0.4-5.6,1.5-8.5,2.4
		C60.8,3.3,70.7,5.6,84.2,11.5z M34.9,49.1c3.2,1.9,6.6,4.5,9.9,6.7c21.9-17,43.5-30.1,67.2-37.5c-3.3-1.7-6.2-3.2-9.9-5
		C87.9,16.9,63.6,26.6,34.9,49.1z">
  </path>
 </g>
</svg>