<svg version="1.1" id="Layer_1" xmlns="http://www.w3.org/2000/svg" xmlns:xlink="http://www.w3.org/1999/xlink" x="0px" y="0px" viewBox="0 0 207 172.5" style="enable-background:new 0 0 207 172.5;" xml:space="preserve">
 <style type="text/css">
  .st0{fill:#F15A29;}
 </style>
 <g transform="translate(-310.74132 -338.54041)">
  <g>
   <path class="st0" d="M424.3,511l-83,0.1l0-2.2l61.1-2.4c11.6-0.4,22.9-1,33.8-4.8c22.3-7.5,40.2-22.7,45.4-41.5
			c5.6-20.2-7.3-39.8-31.6-41.5c20.6-6,38.2-19.1,42.9-35.9c6.1-21.8-4.9-32.9-23.5-36.9c30.9-0.5,55,9.9,46.8,39.4
			c-4.7,16.8-22.7,29.6-43.2,35.2c24.1,1.8,37.2,24.7,30.9,44.7c-6.6,20.8-23.4,33.7-45.8,41.2C447.2,509.9,435.9,510.5,424.3,511">
   </path>
   <path class="st0" d="M380.8,500.5l-39.2,1.9c0-1-0.1-1.3-0.2-2.3l99-28.6l0.1-1.6l-100.3,24.1c-0.3-0.9-0.4-1.2-0.8-2.1
			l105.4-58.5l-0.7-1.6l-107.8,55.1c-0.7-0.9-0.6-1-1.3-1.8L460.2,367l-1.1-1.3l-129,115.4c-0.6-0.4-0.9-0.8-1.6-1.2l91.5-133.5
			l-1.6-0.5l-95.4,131.5c-0.5-0.2-1.1-0.3-1.6-0.5l52.4-129.1l-1.4-0.2l-59,128.1c-0.7,0-1.5,0-2.2,0.1l-0.5,0l38-137.4l71.1,0.2
			c33.6-1.9,60.2,7.2,51.4,38.5c-4.7,16.8-22.3,29.9-42.8,35.5l-0.1,0.4c24.3,1.7,38,21.3,32.4,41.5c-5.2,18.8-24,33.5-46.3,41
			C403.6,499.5,392.3,500.1,380.8,500.5">
   </path>
  </g>
 </g>
</svg>