<svg xmlns:dc="http://purl.org/dc/elements/1.1/" xmlns:cc="http://creativecommons.org/ns#" xmlns:rdf="http://www.w3.org/1999/02/22-rdf-syntax-ns#" xmlns:svg="http://www.w3.org/2000/svg" xmlns="http://www.w3.org/2000/svg" viewBox="0 0 142.22667 154.06667" height="154.06667" width="142.22667" xml:space="preserve" id="svg2" version="1.1" xmlns:xlink="http://www.w3.org/1999/xlink">
 <metadata id="metadata8">
  <rdf:RDF>
   <cc:Work rdf:about="">
    <dc:format>
     image/svg+xml
    </dc:format>
    <dc:type rdf:resource="http://purl.org/dc/dcmitype/StillImage">
    </dc:type>
   </cc:Work>
  </rdf:RDF>
 </metadata>
 <defs id="defs6">
 </defs>
 <g transform="matrix(1.3333333,0,0,-1.3333333,0,154.06667)" id="g10">
  <g transform="scale(0.1)" id="g12">
   <path id="path14" style="fill:#f58220;fill-opacity:1;fill-rule:nonzero;stroke:none" d="M 301.57,904.371 C 566.27,1166.71 886.254,1234.48 1013.89,1055.23 1141.5,876.039 1029.79,515.867 765.039,253.578 500.445,-8.71094 180.434,-76.4492 52.7969,102.738 -74.8125,282.012 36.9219,642.105 301.57,904.371">
   </path>
   <path id="path16" style="fill:#b02a30;fill-opacity:1;fill-rule:nonzero;stroke:none" d="M 476.75,1044.26 C 448.266,1022.89 417.969,997.906 389.379,969.344 157.387,740.977 61.0586,426.973 175.281,269.996 293,112.941 578.465,170.043 813.98,401.93 940.684,525.113 1026.35,669.609 1062,803.383 c 10.72,98.117 -3.57,185.59 -48.19,251.567 -101.662,139.19 -319.361,128.5 -537.06,-10.69">
   </path>
   <path id="path18" style="fill:#ffffff;fill-opacity:1;fill-rule:nonzero;stroke:none" d="M 607.934,124.148 C 484,31.1406 356.027,-14.9805 231.109,4.33984 283.52,1.62109 325.887,59.75 360.586,137.879 c 35.242,80.016 56.375,154.23 73.281,223.68 24.574,109.949 26.492,188.543 13.957,205.375 -21.179,27.992 -69.347,20.742 -123.855,-10.567 -26.125,-14.449 -60.801,-4.738 -19.809,44.852 41.535,50.16 206.41,170.648 265.735,189.472 65.125,18.774 139.339,-6.785 114.222,-78.097 C 666.301,660.543 438.191,62.0117 607.934,124.148 m 186.652,928.342 c 30.816,-30.84 12.016,-98.377 -40.527,-151.357 -53.004,-52.567 -122.043,-71.367 -151.926,-40.988 -31.797,30.371 -12.996,98.839 40.035,152.365 53.523,53.47 122.484,69.92 152.418,39.98">
   </path>
  </g>
 </g>
</svg>