<?xml version="1.0" encoding="UTF-8"?>
<svg version="1.1" xmlns="http://www.w3.org/2000/svg" width="662" height="377">
<path d="M0 0 C1.31613281 0.01675781 2.63226563 0.03351562 3.98828125 0.05078125 C21.83131139 0.77108812 40.37394777 4.52757091 57 11 C58.12148438 11.4125 59.24296875 11.825 60.3984375 12.25 C68.28779756 15.19241867 76.35017455 18.20448561 83.5859375 22.5546875 C86.12768028 24.15656727 86.12768028 24.15656727 89.625 25.5 C92.64566752 26.8425189 93.82219016 27.71848493 96 30 C98.10332891 30.71447643 98.10332891 30.71447643 100 31 C100 31.66 100 32.32 100 33 C100.66 33.20625 101.32 33.4125 102 33.625 C111.15855639 37.82267168 118.6494382 45.79718555 126.14990234 52.39379883 C127.41400582 53.49125684 128.69110617 54.5738756 129.97900391 55.64331055 C130.6085498 56.16707275 131.2380957 56.69083496 131.88671875 57.23046875 C132.45479248 57.69606201 133.02286621 58.16165527 133.6081543 58.64135742 C135.49893368 60.48703138 136.15426761 62.53328053 137 65 C137.99 65.33 138.98 65.66 140 66 C140 66.99 140 67.98 140 69 C140.61875 69.2475 141.2375 69.495 141.875 69.75 C144.42503925 71.25002309 144.76222348 72.3697249 146 75 C146.639375 75.639375 147.27875 76.27875 147.9375 76.9375 C150.15794433 79.15794433 151.47148938 81.26141847 153 84 C153.51433594 84.85851562 153.51433594 84.85851562 154.0390625 85.734375 C155.8362975 88.75993609 157.43925859 91.4953662 158 95 C158.66 95 159.32 95 160 95 C161.21799349 97.90521398 162.4311312 100.81226602 163.63671875 103.72265625 C164.43941374 105.65234421 165.25078716 107.57853068 166.08203125 109.49609375 C169.1696643 116.79078059 171.07916087 124.33278498 173 132 C173.3400708 133.19625 173.6801416 134.3925 174.03051758 135.625 C175.19808183 140.3236667 175.3744682 144.8858081 175.44140625 149.7109375 C175.45789719 150.62898163 175.47438812 151.54702576 175.49137878 152.4928894 C175.53315865 155.45375095 175.55208991 158.4138682 175.5625 161.375 C175.56745483 162.3815564 175.57240967 163.38811279 175.57751465 164.4251709 C175.59985757 183.75179857 173.00015201 200.30932421 164.90136719 218.02197266 C163.77000583 220.50471636 162.75083304 223.02467336 161.75 225.5625 C161.41484375 226.40941406 161.0796875 227.25632813 160.734375 228.12890625 C160.49203125 228.74636719 160.2496875 229.36382812 160 230 C159.34 230 158.68 230 158 230 C157.6596875 231.546875 157.6596875 231.546875 157.3125 233.125 C156.14827898 237.25798461 153.8150705 239.77296797 151 243 C149.98440599 244.99212671 148.98210371 246.9911515 148 249 C147.00697811 250.00692976 146.00610111 251.00613856 145 252 C143.42782175 254.09223721 141.91469943 256.21969928 140.40234375 258.35546875 C139.93957031 258.89816406 139.47679687 259.44085938 139 260 C138.34 260 137.68 260 137 260 C136.835 260.680625 136.67 261.36125 136.5 262.0625 C134.27497116 266.41984815 130.75671268 268.95117534 127 272 C122.93040516 275.32825484 122.93040516 275.32825484 119.1015625 278.92578125 C105.85499058 292 105.85499058 292 100 292 C100 292.66 100 293.32 100 294 C98.9171875 294.37125 98.9171875 294.37125 97.8125 294.75 C94.93066279 295.88321587 94.93066279 295.88321587 92.625 297.9375 C90.18093338 299.85783806 87.97346375 300.91683906 85.12744141 302.09643555 C82.71097628 303.12275382 80.33817297 304.2256947 77.9609375 305.33984375 C68.09095033 309.94143937 58.53480052 314.17721371 48 317 C46.91755005 317.3403125 46.91755005 317.3403125 45.81323242 317.6875 C39.53885361 319.65942993 33.29458826 321.02962055 26.8125 322.125 C25.79712158 322.29676758 24.78174316 322.46853516 23.7355957 322.64550781 C7.19288132 325.35419485 -9.27630547 325.23919132 -26 325 C-26.72687012 324.99274902 -27.45374023 324.98549805 -28.20263672 324.97802734 C-46.32564292 324.69671786 -65.24126169 320.78225702 -82 314 C-83.4339646 313.52446185 -84.87039426 313.05632242 -86.30859375 312.59375 C-90.99028824 311.0543885 -95.4512462 309.15730945 -99.9375 307.125 C-101.10937866 306.59773315 -101.10937866 306.59773315 -102.30493164 306.05981445 C-118.19187851 298.87266592 -118.19187851 298.87266592 -122 295 C-124.10332891 294.28552357 -124.10332891 294.28552357 -126 294 C-126 293.34 -126 292.68 -126 292 C-126.99 291.690625 -126.99 291.690625 -128 291.375 C-131.38744181 289.82242251 -134.01653908 287.85357514 -136.94921875 285.578125 C-138.82571894 284.13411343 -140.73774404 282.77981565 -142.6875 281.4375 C-145.78790677 279.24196308 -148.34518095 276.72289134 -151 274 C-151.969375 273.21625 -152.93875 272.4325 -153.9375 271.625 C-157.3667671 268.81923601 -160.43093721 265.61673024 -163 262 C-163 261.34 -163 260.68 -163 260 C-163.99 259.67 -164.98 259.34 -166 259 C-167.46484375 257.07421875 -167.46484375 257.07421875 -168.9375 254.6875 C-171.04985199 251.37779998 -173.17083449 248.73160808 -176 246 C-177.05771739 244.36935236 -178.05273046 242.69719127 -179 241 C-179.34289062 240.42765625 -179.68578125 239.8553125 -180.0390625 239.265625 C-181.8362975 236.24006391 -183.43925859 233.5046338 -184 230 C-184.66 230 -185.32 230 -186 230 C-187.21799349 227.09478602 -188.4311312 224.18773398 -189.63671875 221.27734375 C-190.43941374 219.34765579 -191.25078716 217.42146932 -192.08203125 215.50390625 C-195.1696643 208.20921941 -197.07916087 200.66721502 -199 193 C-199.3407959 191.80592529 -199.6815918 190.61185059 -200.03271484 189.3815918 C-201.20986312 184.64483368 -201.35727773 180.04710284 -201.40625 175.18359375 C-201.42000671 174.25739227 -201.43376343 173.3311908 -201.44793701 172.37692261 C-201.48217196 169.3969541 -201.49484967 166.41765483 -201.5 163.4375 C-201.50334351 162.42577728 -201.50668701 161.41405457 -201.51013184 160.37167358 C-201.513157 145.14494304 -200.65849047 131.31228376 -195 117 C-194.67032227 116.15566406 -194.34064453 115.31132812 -194.00097656 114.44140625 C-192.13745753 109.73059939 -190.20616476 105.04806026 -188.25 100.375 C-187.82203125 99.35148437 -187.3940625 98.32796875 -186.953125 97.2734375 C-186.63859375 96.52320312 -186.3240625 95.77296875 -186 95 C-185.34 95 -184.68 95 -184 95 C-183.773125 93.96875 -183.54625 92.9375 -183.3125 91.875 C-182.14827898 87.74201539 -179.8150705 85.22703203 -177 82 C-175.98440599 80.00787329 -174.98210371 78.0088485 -174 76 C-173.00697811 74.99307024 -172.00610111 73.99386144 -171 73 C-169.42782175 70.90776279 -167.91469943 68.78030072 -166.40234375 66.64453125 C-165.93957031 66.10183594 -165.47679687 65.55914062 -165 65 C-164.34 65 -163.68 65 -163 65 C-162.835 64.319375 -162.67 63.63875 -162.5 62.9375 C-160.27497116 58.58015185 -156.75671268 56.04882466 -153 53 C-148.93040516 49.67174516 -148.93040516 49.67174516 -145.1015625 46.07421875 C-131.85499058 33 -131.85499058 33 -126 33 C-126 32.34 -126 31.68 -126 31 C-125.278125 30.7525 -124.55625 30.505 -123.8125 30.25 C-120.93648462 29.13373182 -120.93648462 29.13373182 -118.75 27.0625 C-115.11370443 24.33527832 -111.33074533 23.2454431 -107 22 C-107 21.34 -107 20.68 -107 20 C-104.52163071 19.06034833 -102.04234308 18.1232481 -99.5625 17.1875 C-98.53092773 16.79594727 -98.53092773 16.79594727 -97.47851562 16.39648438 C-93.09133348 14.74363901 -88.67950413 13.20717633 -84.22583008 11.7434082 C-82.07727116 11.02580791 -79.94666493 10.27001827 -77.81640625 9.5 C-67.29360039 5.75613258 -57.03783797 3.58008185 -46 2 C-44.71802734 1.73316406 -44.71802734 1.73316406 -43.41015625 1.4609375 C-29.37143507 -1.22393949 -14.20871098 -0.21155026 0 0 Z " fill="#033675" transform="translate(344,26)"/>
<path d="M0 0 C1.54083567 0.92813078 3.1098674 1.81075359 4.70117188 2.64941406 C10.67840005 5.84084827 16.13585187 9.18488192 19.28027344 15.37353516 C21.32030118 25.88595086 20.33206887 36.78704751 19.28027344 47.37353516 C16.47099189 46.88051555 14.4850166 46.49865598 12.03027344 44.99853516 C8.95560335 43.18168465 5.95698366 42.17772126 2.56152344 41.11962891 C0.28027344 40.37353516 0.28027344 40.37353516 -2.07519531 39.38525391 C-16.28084951 33.95059447 -31.48633505 34.58843778 -46.28222656 36.62353516 C-47.11520264 36.73262207 -47.94817871 36.84170898 -48.80639648 36.95410156 C-52.84432723 37.57645105 -56.04160506 38.36146767 -59.55957031 40.48291016 C-62.71972656 42.37353516 -62.71972656 42.37353516 -66.71972656 42.37353516 C-67.04972656 43.36353516 -67.37972656 44.35353516 -67.71972656 45.37353516 C-69.46191406 47.02197266 -69.46191406 47.02197266 -71.59472656 48.74853516 C-74.73294277 51.38799914 -76.74235765 53.74835881 -78.71972656 57.37353516 C-79.37972656 57.37353516 -80.03972656 57.37353516 -80.71972656 57.37353516 C-80.81060547 58.31326172 -80.81060547 58.31326172 -80.90332031 59.27197266 C-80.98710937 60.08923828 -81.07089844 60.90650391 -81.15722656 61.74853516 C-81.2384375 62.56064453 -81.31964844 63.37275391 -81.40332031 64.20947266 C-81.71972656 66.37353516 -81.71972656 66.37353516 -82.71972656 68.37353516 C-83.49846451 77.0417822 -82.62902556 84.54066964 -78.71972656 92.37353516 C-78.05972656 93.03353516 -77.39972656 93.69353516 -76.71972656 94.37353516 C-76.71972656 95.36353516 -76.71972656 96.35353516 -76.71972656 97.37353516 C-76.18347656 97.62103516 -75.64722656 97.86853516 -75.09472656 98.12353516 C-72.13732837 99.68006052 -69.42248606 101.40789189 -66.71972656 103.37353516 C-66.71972656 104.03353516 -66.71972656 104.69353516 -66.71972656 105.37353516 C-64.03414648 106.11404437 -61.3473179 106.84876249 -58.65722656 107.57275391 C-56.96408712 108.03431453 -55.2741021 108.50869699 -53.59472656 109.01806641 C-44.31820849 111.70439143 -35.6603621 110.74268167 -26.71972656 107.37353516 C-25.98109375 107.10669922 -25.24246094 106.83986328 -24.48144531 106.56494141 C-17.83051061 103.9069302 -12.3483768 99.74000322 -6.71972656 95.37353516 C-5.86765625 94.72900391 -5.01558594 94.08447266 -4.13769531 93.42041016 C-1.66109773 91.32390429 0.22665964 89.18063018 2.21777344 86.62353516 C2.90484375 85.74568359 3.59191406 84.86783203 4.29980469 83.96337891 C6.50527609 81.07930091 8.67644687 78.17174323 10.83496094 75.25244141 C12.77060023 72.73611032 14.85647984 70.36977968 16.98339844 68.01416016 C18.3914301 66.23291528 19.33206232 64.43097437 20.28027344 62.37353516 C20.94027344 62.37353516 21.60027344 62.37353516 22.28027344 62.37353516 C22.53808594 61.65810547 22.79589844 60.94267578 23.06152344 60.20556641 C24.35412109 57.20193405 25.90804433 54.73848144 27.78027344 52.06103516 C28.38871094 51.17802734 28.99714844 50.29501953 29.62402344 49.38525391 C30.17058594 48.72138672 30.71714844 48.05751953 31.28027344 47.37353516 C31.94027344 47.37353516 32.60027344 47.37353516 33.28027344 47.37353516 C33.43496094 46.47634766 33.43496094 46.47634766 33.59277344 45.56103516 C34.379392 43.05815792 35.41573175 42.16038761 37.28027344 40.37353516 C37.61027344 39.38353516 37.94027344 38.39353516 38.28027344 37.37353516 C39.92395484 35.68419594 41.59456104 34.02093591 43.28027344 32.37353516 C45.86465744 29.52353391 48.04317672 27.0848253 49.28027344 23.37353516 C50.58914802 22.01618374 51.92880206 20.68848028 53.28027344 19.37353516 C54.15924399 18.29342087 55.0338408 17.20974014 55.90527344 16.12353516 C65.7807739 4.46843943 83.65095923 -7.50629806 99.18261719 -9.45068359 C118.30361745 -10.53573405 132.60641512 -8.33558566 149.28027344 1.37353516 C149.28027344 2.03353516 149.28027344 2.69353516 149.28027344 3.37353516 C149.81652344 3.43541016 150.35277344 3.49728516 150.90527344 3.56103516 C160.17645429 6.73275492 166.85961472 17.91391155 171.19433594 26.14697266 C172.63936027 29.10979233 173.99717597 32.10218669 175.28808594 35.13525391 C176.30230428 37.50021237 176.30230428 37.50021237 177.79199219 40.18212891 C179.43019914 43.69502937 180.21548412 46.95126529 180.96777344 50.74853516 C181.21914063 51.99376953 181.47050781 53.23900391 181.72949219 54.52197266 C181.91125 55.46298828 182.09300781 56.40400391 182.28027344 57.37353516 C165.2071246 58.60157383 165.2071246 58.60157383 160.70605469 55.73291016 C159.03027344 53.62353516 159.03027344 53.62353516 157.63574219 51.42041016 C155.49380468 48.18589934 152.70877373 47.05280061 149.28027344 45.37353516 C149.28027344 44.71353516 149.28027344 44.05353516 149.28027344 43.37353516 C148.08402344 43.24978516 146.88777344 43.12603516 145.65527344 42.99853516 C143.04558745 42.72856764 140.95729828 42.25719223 138.47167969 41.36181641 C126.98434204 37.80453804 114.91547517 40.55045285 104.28027344 45.37353516 C100.65118039 47.40764433 97.47527065 49.71551227 94.28027344 52.37353516 C93.46171875 53.04255859 92.64316406 53.71158203 91.79980469 54.40087891 C84.50115118 60.65848416 78.15969354 67.86932263 72.62011719 75.72900391 C72.17796875 76.27169922 71.73582031 76.81439453 71.28027344 77.37353516 C70.62027344 77.37353516 69.96027344 77.37353516 69.28027344 77.37353516 C69.19777344 77.93041016 69.11527344 78.48728516 69.03027344 79.06103516 C68.04522317 82.09827348 66.32064922 83.92508422 64.28027344 86.37353516 C63.57902344 87.46666016 62.87777344 88.55978516 62.15527344 89.68603516 C61.22714844 91.01634766 61.22714844 91.01634766 60.28027344 92.37353516 C59.62027344 92.37353516 58.96027344 92.37353516 58.28027344 92.37353516 C58.19777344 92.90978516 58.11527344 93.44603516 58.03027344 93.99853516 C56.75861415 98.02545623 54.41182391 101.27021464 51.40136719 104.20556641 C48.18825354 107.48968809 45.71926034 111.25761985 43.08496094 115.01025391 C41.28027344 117.37353516 41.28027344 117.37353516 39.28027344 118.37353516 C38.95027344 119.36353516 38.62027344 120.35353516 38.28027344 121.37353516 C35.84277344 124.06103516 35.84277344 124.06103516 33.28027344 126.37353516 C32.62027344 126.37353516 31.96027344 126.37353516 31.28027344 126.37353516 C31.03277344 126.95103516 30.78527344 127.52853516 30.53027344 128.12353516 C29.11427688 130.67232896 27.33304129 132.32076731 25.28027344 134.37353516 C24.95027344 135.36353516 24.62027344 136.35353516 24.28027344 137.37353516 C22.96493933 138.07504668 21.62909752 138.73879441 20.28027344 139.37353516 C19.25830352 140.3510716 18.26047718 141.35412326 17.28027344 142.37353516 C14.09326295 145.05733346 10.86369735 147.26023387 7.28027344 149.37353516 C6.68214844 149.86853516 6.08402344 150.36353516 5.46777344 150.87353516 C2.86236011 152.66010429 0.2533336 153.59964522 -2.71972656 154.62744141 C-4.75116778 155.33231997 -4.75116778 155.33231997 -6.65722656 156.42431641 C-13.87763272 159.74734424 -23.93812791 158.54710241 -31.71972656 158.37353516 C-32.8115625 158.39158203 -33.90339844 158.40962891 -35.02832031 158.42822266 C-48.19418527 158.21900346 -59.85321323 151.85039873 -69.71972656 143.37353516 C-70.33074219 142.88111328 -70.94175781 142.38869141 -71.57128906 141.88134766 C-77.06179745 137.37212162 -81.11656272 132.52221773 -84.71972656 126.37353516 C-85.53570312 125.00261719 -85.53570312 125.00261719 -86.36816406 123.60400391 C-95.52698248 107.46210448 -99.11449592 90.61962257 -99.03222656 72.12353516 C-99.02803711 70.84027344 -99.02384766 69.55701172 -99.01953125 68.23486328 C-98.91207403 59.23131998 -98.2410636 51.05337204 -95.71972656 42.37353516 C-95.40648437 41.19662109 -95.09324219 40.01970703 -94.77050781 38.80712891 C-93.1096695 32.9318313 -91.37457018 28.24665998 -87.71972656 23.37353516 C-87.36910156 22.48666016 -87.01847656 21.59978516 -86.65722656 20.68603516 C-85.65426988 18.21207533 -84.61860715 17.19646052 -82.71972656 15.37353516 C-82.30722656 14.63103516 -81.89472656 13.88853516 -81.46972656 13.12353516 C-77.53677881 6.94318869 -71.87379038 2.25143838 -65.71972656 -1.62646484 C-64.90632813 -2.14466797 -64.09292969 -2.66287109 -63.25488281 -3.19677734 C-43.87905711 -14.70551743 -18.5001552 -11.41455492 0 0 Z " fill="#FCFCFD" transform="translate(289.7197265625,113.62646484375)"/>
<path d="M0 0 C1.48767362 0.5355625 2.98736578 1.03963306 4.5 1.5 C8.21893619 2.63185014 11.54755239 4.21425123 15 6 C15.1630807 9.02303295 15.28136405 12.03716706 15.375 15.0625 C15.42527344 15.91005859 15.47554688 16.75761719 15.52734375 17.63085938 C15.63616665 22.32838119 15.34846044 25.18510897 12.22265625 28.81640625 C11.16019372 29.88937424 10.08675647 30.95164542 9 32 C7.67739785 33.61678842 6.36369866 35.24093657 5.0625 36.875 C4.37671875 37.72835937 3.6909375 38.58171875 2.984375 39.4609375 C1.74894784 41.0417006 0.54452241 42.64783948 -0.609375 44.2890625 C-5.63041252 51.32348635 -12.02222279 56.04278159 -19 61 C-19.98484375 61.7115625 -20.9696875 62.423125 -21.984375 63.15625 C-25.18703432 65.11435259 -28.08454536 66.162269 -31.6875 67.1875 C-32.80511719 67.51105469 -33.92273438 67.83460938 -35.07421875 68.16796875 C-36.03972656 68.44253906 -37.00523437 68.71710938 -38 69 C-38.99 69.33 -39.98 69.66 -41 70 C-47.75344607 70.75312653 -53.97396693 69.75817025 -60.5 68.125 C-61.19440186 67.95137939 -61.88880371 67.77775879 -62.60424805 67.59887695 C-65.84733849 66.73726316 -68.18156007 65.87895996 -71 64 C-71 63.34 -71 62.68 -71 62 C-72.0828125 61.62875 -72.0828125 61.62875 -73.1875 61.25 C-81.12592111 57.72181284 -84.18997706 51.48196156 -87.3125 43.75 C-89.08929143 34.05841041 -88.12679657 25.28733028 -85 16 C-84.34 16 -83.68 16 -83 16 C-82.814375 15.319375 -82.62875 14.63875 -82.4375 13.9375 C-80.41173743 9.79789822 -77.32618641 7.12617075 -74 4 C-73.53078125 3.47792969 -73.0615625 2.95585937 -72.578125 2.41796875 C-70.59277748 0.63410452 -68.67835552 -0.11742886 -66.1875 -1.0625 C-65.35605469 -1.38347656 -64.52460938 -1.70445312 -63.66796875 -2.03515625 C-62.34732422 -2.51275391 -62.34732422 -2.51275391 -61 -3 C-60.04480469 -3.34675781 -59.08960938 -3.69351563 -58.10546875 -4.05078125 C-39.83038189 -9.63675119 -17.05457581 -9.01042036 0 0 Z " fill="#023573" transform="translate(294,155)"/>
<path d="M0 0 C0.74886475 0.00523682 1.49772949 0.01047363 2.26928711 0.01586914 C3.07817383 0.0190918 3.88706055 0.02231445 4.72045898 0.02563477 C5.5705957 0.03401367 6.42073242 0.04239258 7.29663086 0.05102539 C8.15063477 0.05553711 9.00463867 0.06004883 9.88452148 0.06469727 C12.00108749 0.07652166 14.11761771 0.0944577 16.23413086 0.11352539 C16.80856683 19.6017976 6.5319469 38.81104437 -6.32836914 52.92602539 C-8.76586914 55.11352539 -8.76586914 55.11352539 -11.76586914 55.11352539 C-12.09586914 56.10352539 -12.42586914 57.09352539 -12.76586914 58.11352539 C-14.36743164 59.14086914 -14.36743164 59.14086914 -16.39086914 60.05102539 C-19.12914984 61.30928465 -21.37316016 62.52648328 -23.89086914 64.23852539 C-35.22074283 70.80881744 -53.52515312 69.04100281 -65.76586914 66.11352539 C-68.38780924 64.98553146 -70.41347321 63.75473186 -72.76586914 62.11352539 C-72.76586914 61.45352539 -72.76586914 60.79352539 -72.76586914 60.11352539 C-73.85448242 59.97237305 -73.85448242 59.97237305 -74.96508789 59.82836914 C-78.19651464 59.00361168 -79.98218657 57.74694382 -82.57836914 55.67602539 C-83.36856445 55.05856445 -84.15875977 54.44110352 -84.97290039 53.80493164 C-85.56458008 53.24676758 -86.15625977 52.68860352 -86.76586914 52.11352539 C-86.76586914 51.45352539 -86.76586914 50.79352539 -86.76586914 50.11352539 C-87.75586914 50.11352539 -88.74586914 50.11352539 -89.76586914 50.11352539 C-91.85180664 47.95336914 -91.85180664 47.95336914 -94.14086914 45.05102539 C-94.89110352 44.11129883 -95.64133789 43.17157227 -96.41430664 42.20336914 C-97.19032227 41.1837207 -97.96633789 40.16407227 -98.76586914 39.11352539 C-99.22533936 38.61989502 -99.68480957 38.12626465 -100.15820312 37.61767578 C-104.86545361 32.15606358 -104.34553972 26.6019089 -104.07836914 19.67602539 C-104.05581055 18.56291992 -104.03325195 17.44981445 -104.01000977 16.30297852 C-103.95139976 13.57175244 -103.86940455 10.84335586 -103.76586914 8.11352539 C-99.60163678 9.40906435 -95.82562197 10.98760224 -91.95336914 12.98852539 C-90.36975586 13.78516602 -90.36975586 13.78516602 -88.75415039 14.59790039 C-87.03603647 15.4693098 -85.32218853 16.34950852 -83.62133789 17.25415039 C-65.4520583 26.28503492 -44.82452376 25.638254 -25.76586914 20.11352539 C-19.10583933 17.45250338 -10.11127731 12.80434172 -6.76586914 6.11352539 C-6.10586914 6.11352539 -5.44586914 6.11352539 -4.76586914 6.11352539 C-4.30180664 4.90696289 -4.30180664 4.90696289 -3.82836914 3.67602539 C-2.367266 0.1521884 -2.367266 0.1521884 0 0 Z " fill="#FBFCFD" transform="translate(455.765869140625,204.886474609375)"/>
<path d="M0 0 C0.11598804 7.73648105 0.20476267 15.47287165 0.25906086 23.21002483 C0.28512544 26.8030086 0.32046329 30.39539636 0.37719727 33.98803711 C0.43163335 37.45698186 0.46144416 40.92535439 0.47438622 44.39469337 C0.48808449 46.35851051 0.52710018 48.32209825 0.56648254 50.28556824 C0.56960697 60.22060949 0.56960697 60.22060949 -2.34301758 63.28833008 C-5 65 -5 65 -8 66 C-8.33 66.825 -8.66 67.65 -9 68.5 C-9.33 69.325 -9.66 70.15 -10 71 C-10.99 71.33 -11.98 71.66 -13 72 C-13.33897702 73.33190971 -13.67099916 74.66559102 -14 76 C-15.77734375 78.578125 -15.77734375 78.578125 -17.9375 81.25 C-18.64777344 82.14203125 -19.35804688 83.0340625 -20.08984375 83.953125 C-20.72019531 84.62859375 -21.35054688 85.3040625 -22 86 C-22.66 86 -23.32 86 -24 86 C-24.103125 86.598125 -24.20625 87.19625 -24.3125 87.8125 C-25.09911856 90.31537724 -26.13545831 91.21314755 -28 93 C-28.33 93.99 -28.66 94.98 -29 96 C-29.66 96 -30.32 96 -31 96 C-31.25910156 96.54269531 -31.51820313 97.08539063 -31.78515625 97.64453125 C-33.21267919 100.41236511 -34.79484752 103.0415931 -36.4375 105.6875 C-37.03433594 106.66074219 -37.63117188 107.63398438 -38.24609375 108.63671875 C-40 111 -40 111 -43 112 C-43.84233232 78.99446255 -44.13365882 46.01578415 -44 13 C-42.99114746 12.70452271 -42.99114746 12.70452271 -41.96191406 12.40307617 C-41.07213867 12.13986572 -40.18236328 11.87665527 -39.265625 11.60546875 C-38.38680664 11.34660889 -37.50798828 11.08774902 -36.60253906 10.82104492 C-34.26216435 10.0827072 -32.02181714 9.23614283 -29.75 8.3125 C-26.18587783 7.06505724 -23.72972649 6.72027051 -20 7 C-20 6.34 -20 5.68 -20 5 C-19.34773438 4.80664062 -18.69546875 4.61328125 -18.0234375 4.4140625 C-14.19714202 3.27407476 -10.39202251 2.13793385 -6.625 0.8125 C-4 0 -4 0 0 0 Z " fill="#EC161E" transform="translate(352,65)"/>
<path d="M0 0 C0.33 0 0.66 0 1 0 C2.02206391 22.18179974 2.05010119 44.33395952 1.71766281 66.53131485 C1.68743015 68.62984819 1.66101474 70.72839991 1.63552856 72.82699585 C1.58636862 76.79376333 1.51918503 80.76010431 1.44921875 84.7265625 C1.42711838 86.54141396 1.42711838 86.54141396 1.40457153 88.39292908 C1.38151947 89.49899002 1.35846741 90.60505096 1.3347168 91.74462891 C1.31020699 93.20057968 1.31020699 93.20057968 1.28520203 94.6859436 C1 97 1 97 -1 99 C-3.01196289 99.82202148 -3.01196289 99.82202148 -5.47265625 100.62109375 C-6.37306641 100.91693359 -7.27347656 101.21277344 -8.20117188 101.51757812 C-9.14541016 101.82115234 -10.08964844 102.12472656 -11.0625 102.4375 C-11.97966797 102.73720703 -12.89683594 103.03691406 -13.84179688 103.34570312 C-15.6709512 103.94332194 -17.50070035 104.53912333 -19.33105469 105.13305664 C-21.89570313 105.96612164 -24.45885891 106.8032297 -27.01953125 107.6484375 C-27.7256958 107.88095215 -28.43186035 108.1134668 -29.15942383 108.35302734 C-31.15675542 109.02521526 -31.15675542 109.02521526 -33.625 110.1875 C-36.78921125 111.26999332 -39.67715392 111.05034615 -43 111 C-43.06954436 103.37650885 -43.12283374 95.75305064 -43.15543652 88.12931442 C-43.1710852 84.58918799 -43.19230836 81.04927877 -43.22631836 77.50927734 C-43.26518288 73.43845548 -43.27971574 69.36786139 -43.29296875 65.296875 C-43.30845261 64.02696716 -43.32393646 62.75705933 -43.33988953 61.44866943 C-43.34011612 60.26774719 -43.34034271 59.08682495 -43.34057617 57.87011719 C-43.34723801 56.83087097 -43.35389984 55.79162476 -43.36076355 54.72088623 C-42.9463314 51.59523031 -42.24250459 50.19796131 -40 48 C-39.01 48 -38.02 48 -37 48 C-36.8453125 47.0409375 -36.8453125 47.0409375 -36.6875 46.0625 C-36.460625 45.381875 -36.23375 44.70125 -36 44 C-34.515 43.505 -34.515 43.505 -33 43 C-31.83333333 41.08333333 -31.83333333 41.08333333 -31 39 C-30.67 38.34 -30.34 37.68 -30 37 C-29.34 37 -28.68 37 -28 37 C-27.731875 36.360625 -27.46375 35.72125 -27.1875 35.0625 C-26 33 -26 33 -23 32 C-22.87625 31.4225 -22.7525 30.845 -22.625 30.25 C-21.87904247 27.56455289 -20.53751956 26.48923096 -18.53515625 24.6328125 C-15.82322937 21.74837119 -13.74317751 18.3955388 -11.55078125 15.109375 C-10 13 -10 13 -8 12 C-6.11858921 9.09949171 -4.49905891 6.11343005 -3 3 C-2.34 3 -1.68 3 -1 3 C-0.67 2.01 -0.34 1.02 0 0 Z " fill="#E8161F" transform="translate(351,203)"/>
<path d="M0 0 C-2.1875 2.0625 -2.1875 2.0625 -5 4 C-7.8125 3.75 -7.8125 3.75 -10 3 C-10 3.66 -10 4.32 -10 5 C-11.65 5 -13.3 5 -15 5 C-14.67 33.38 -14.34 61.76 -14 91 C-12.68 91.33 -11.36 91.66 -10 92 C-10 90.68 -10 89.36 -10 88 C-9.34 88 -8.68 88 -8 88 C-7 91 -7 91 -8.328125 93.6640625 C-9.27945312 95.12972656 -9.27945312 95.12972656 -10.25 96.625 C-11.18585938 98.09839844 -11.18585938 98.09839844 -12.140625 99.6015625 C-14 102 -14 102 -17 103 C-17.84233232 69.99446255 -18.13365882 37.01578415 -18 4 C-17.31873047 3.79793945 -16.63746094 3.59587891 -15.93554688 3.38769531 C-15.03900391 3.12053711 -14.14246094 2.85337891 -13.21875 2.578125 C-12.33123047 2.31418945 -11.44371094 2.05025391 -10.52929688 1.77832031 C-8.50263895 1.15467307 -6.49690998 0.46318214 -4.5 -0.25 C-2 -1 -2 -1 0 0 Z " fill="#BF2334" transform="translate(326,74)"/>
<path d="M0 0 C0.33 0 0.66 0 1 0 C2.02206391 22.18179974 2.05010119 44.33395952 1.71766281 66.53131485 C1.68743015 68.62984819 1.66101474 70.72839991 1.63552856 72.82699585 C1.58636862 76.79376333 1.51918503 80.76010431 1.44921875 84.7265625 C1.43448517 85.93646347 1.41975159 87.14636444 1.40457153 88.39292908 C1.38151947 89.49899002 1.35846741 90.60505096 1.3347168 91.74462891 C1.31837692 92.71526276 1.30203705 93.68589661 1.28520203 94.6859436 C1 97 1 97 -1 99 C-3.9279868 100.2577808 -6.97398331 101.19209977 -10 102.1875 C-10.83273437 102.47302734 -11.66546875 102.75855469 -12.5234375 103.05273438 C-13.32007813 103.31763672 -14.11671875 103.58253906 -14.9375 103.85546875 C-15.66839844 104.09934326 -16.39929688 104.34321777 -17.15234375 104.59448242 C-19 105 -19 105 -21 104 C-20.505 103.01 -20.505 103.01 -20 102 C-18.35 102 -16.7 102 -15 102 C-15 101.34 -15 100.68 -15 100 C-12.69 100 -10.38 100 -8 100 C-8 99.34 -8 98.68 -8 98 C-6.35 98 -4.7 98 -3 98 C-3 97.34 -3 96.68 -3 96 C-2.01 96 -1.02 96 0 96 C-0.33 70.59 -0.66 45.18 -1 19 C-2.98 19.33 -4.96 19.66 -7 20 C-9.375 19.5625 -9.375 19.5625 -11 19 C-11.45375 19.66 -11.9075 20.32 -12.375 21 C-12.91125 21.66 -13.4475 22.32 -14 23 C-14.66 23 -15.32 23 -16 23 C-11.8 13.9 -11.8 13.9 -8 12 C-6.11858921 9.09949171 -4.49905891 6.11343005 -3 3 C-2.34 3 -1.68 3 -1 3 C-0.67 2.01 -0.34 1.02 0 0 Z " fill="#E71C25" transform="translate(351,203)"/>
<path d="M0 0 C0.13918411 7.73639574 0.24571344 15.47266127 0.31087303 23.21002483 C0.34215173 26.80314628 0.3845562 30.39540958 0.45263672 33.98803711 C0.51796051 37.4570079 0.55373209 40.92515488 0.56926346 44.39469337 C0.58570209 46.35859505 0.63252186 48.32216639 0.67977905 50.28556824 C0.68307932 59.03072078 0.68307932 59.03072078 -1.37567139 61.95205688 C-3.03662109 63.35083008 -3.03662109 63.35083008 -6 65 C-6 63.68 -6 62.36 -6 61 C-4.02 60.505 -4.02 60.505 -2 60 C-2.33 59.01 -2.66 58.02 -3 57 C-3.06033639 55.20453081 -3.05871917 53.40669753 -3.02172852 51.6105957 C-3.00163223 50.50968094 -2.98153595 49.40876617 -2.96083069 48.27449036 C-2.92027809 46.49312935 -2.92027809 46.49312935 -2.87890625 44.67578125 C-2.85529526 43.45924362 -2.83168427 42.24270599 -2.80735779 40.98930359 C-2.73067585 37.09691836 -2.64667058 33.20472981 -2.5625 29.3125 C-2.50928388 26.67644197 -2.45654345 24.0403743 -2.40429688 21.40429688 C-2.2750545 14.93607575 -2.1397963 8.46800116 -2 2 C-2.99 2 -3.98 2 -5 2 C-5 2.66 -5 3.32 -5 4 C-5.75925781 4.12117188 -6.51851563 4.24234375 -7.30078125 4.3671875 C-8.29464844 4.53476563 -9.28851563 4.70234375 -10.3125 4.875 C-11.29863281 5.03742188 -12.28476562 5.19984375 -13.30078125 5.3671875 C-16.20059827 5.88085454 -16.20059827 5.88085454 -19 8 C-21.33199388 8.07905064 -23.66832622 8.08798769 -26 8 C-26 7.67 -26 7.34 -26 7 C-24.02 7 -22.04 7 -20 7 C-20 6.34 -20 5.68 -20 5 C-19.34773438 4.80664062 -18.69546875 4.61328125 -18.0234375 4.4140625 C-14.19714202 3.27407476 -10.39202251 2.13793385 -6.625 0.8125 C-4 0 -4 0 0 0 Z " fill="#BA1628" transform="translate(352,65)"/>
<path d="M0 0 C1.66611905 -0.042721 3.33382885 -0.04063832 5 0 C6.62607636 1.62607636 6.16590931 3.45683065 6.20532227 5.70336914 C6.22526749 6.70433121 6.24521271 7.70529327 6.26576233 8.73658752 C6.28247482 9.8251152 6.29918732 10.91364288 6.31640625 12.03515625 C6.33718735 13.14354355 6.35796844 14.25193085 6.37937927 15.39390564 C6.44499623 18.95003808 6.50381596 22.50624703 6.5625 26.0625 C6.60567368 28.46680493 6.64928758 30.87110199 6.69335938 33.27539062 C6.80068992 39.18351185 6.90243331 45.09170991 7 51 C10.05270463 51.15811388 10.05270463 51.15811388 13 50 C13 50.66 13 51.32 13 52 C13.66 52.33 14.32 52.66 15 53 C14.29875 53.4125 13.5975 53.825 12.875 54.25 C9.86398375 56.0827925 6.9329445 58.04470366 4 60 C4 40.53 4 21.06 4 1 C2.68 0.67 1.36 0.34 0 0 Z " fill="#1B2E68" transform="translate(348,64)"/>
<path d="M0 0 C4 2 4 2 5.25 4.625 C5.4975 5.40875 5.745 6.1925 6 7 C5.01 6.34 4.02 5.68 3 5 C2.67 24.14 2.34 43.28 2 63 C-5 65 -5 65 -7 64 C-5.02 63.01 -3.04 62.02 -1 61 C-0.67 40.87 -0.34 20.74 0 0 Z " fill="#453261" transform="translate(352,239)"/>
<path d="M0 0 C0.66 0.33 1.32 0.66 2 1 C1.91571537 9.1798078 1.82087909 17.35939535 1.71247292 25.53891563 C1.66247216 29.33677881 1.61614275 33.13461366 1.578125 36.93261719 C1.54131951 40.59614954 1.49497307 44.259447 1.44193649 47.92277908 C1.42336721 49.32220983 1.40826864 50.72169098 1.39665604 52.12119675 C1.37983757 54.0774795 1.34966647 56.03363381 1.31884766 57.98974609 C1.30552399 59.1044931 1.29220032 60.21924011 1.2784729 61.36776733 C1 64 1 64 -1 66 C-3.9279868 67.2577808 -6.97398331 68.19209977 -10 69.1875 C-10.83273437 69.47302734 -11.66546875 69.75855469 -12.5234375 70.05273438 C-13.32007813 70.31763672 -14.11671875 70.58253906 -14.9375 70.85546875 C-15.66839844 71.09934326 -16.39929688 71.34321777 -17.15234375 71.59448242 C-19 72 -19 72 -21 71 C-20.505 70.01 -20.505 70.01 -20 69 C-18.35 69 -16.7 69 -15 69 C-15 68.34 -15 67.68 -15 67 C-12.69 67 -10.38 67 -8 67 C-8 66.34 -8 65.68 -8 65 C-6.35 65 -4.7 65 -3 65 C-3 64.34 -3 63.68 -3 63 C-2.01 63 -1.02 63 0 63 C0 42.21 0 21.42 0 0 Z " fill="#B51B2E" transform="translate(351,236)"/>
<path d="M0 0 C0 19.47 0 38.94 0 59 C6.39359015 58.38639706 6.39359015 58.38639706 9.6875 56.875 C12.29973109 55.88658824 13.42423842 56.04601423 16 57 C12.535 57.495 12.535 57.495 9 58 C9 58.66 9 59.32 9 60 C4.05 60.495 4.05 60.495 -1 61 C-1.33 42.19 -1.66 23.38 -2 4 C-2.33 4.66 -2.66 5.32 -3 6 C-4.9375 6.75 -4.9375 6.75 -7 7 C-7.66 6.34 -8.32 5.68 -9 5 C-8.236875 4.54625 -7.47375 4.0925 -6.6875 3.625 C-0.69230769 0 -0.69230769 0 0 0 Z " fill="#282F62" transform="translate(308,255)"/>
<path d="M0 0 C8.25 0 16.5 0 25 0 C25 0.66 25 1.32 25 2 C28.96 2 32.92 2 37 2 C37 2.33 37 2.66 37 3 C20.17 3 3.34 3 -14 3 C-14 2.67 -14 2.34 -14 2 C-9.38 2 -4.76 2 0 2 C0 1.34 0 0.68 0 0 Z " fill="#425E89" transform="translate(319,26)"/>
<path d="M0 0 C0 0.99 0 1.98 0 3 C-0.72960937 2.69320312 -1.45921875 2.38640625 -2.2109375 2.0703125 C-16.79265079 -3.52547103 -34.2439289 -2.04407821 -49 2 C-49 1.34 -49 0.68 -49 0 C-47.02 -0.33 -45.04 -0.66 -43 -1 C-43 -1.66 -43 -2.32 -43 -3 C-28.36961446 -4.2645945 -14.12884983 -4.75950661 0 0 Z " fill="#0B2B61" transform="translate(427,106)"/>
<path d="M0 0 C-2.1875 2.0625 -2.1875 2.0625 -5 4 C-7.8125 3.75 -7.8125 3.75 -10 3 C-10 3.66 -10 4.32 -10 5 C-11.65 5 -13.3 5 -15 5 C-15 20.84 -15 36.68 -15 53 C-15.33 53 -15.66 53 -16 53 C-16 36.83 -16 20.66 -16 4 C-3.29411765 -1.64705882 -3.29411765 -1.64705882 0 0 Z " fill="#D51A2B" transform="translate(326,74)"/>
<path d="M0 0 C0.99 0.33 1.98 0.66 3 1 C1.71580959 2.67243402 0.42242815 4.33781447 -0.875 6 C-1.59429687 6.928125 -2.31359375 7.85625 -3.0546875 8.8125 C-3.69664062 9.534375 -4.33859375 10.25625 -5 11 C-5.66 11 -6.32 11 -7 11 C-7.103125 11.598125 -7.20625 12.19625 -7.3125 12.8125 C-8.1032679 15.32857968 -9.08428637 16.23754346 -11 18 C-11.66 18.99 -12.32 19.98 -13 21 C-12.67 18.69 -12.34 16.38 -12 14 C-12.66 13.67 -13.32 13.34 -14 13 C-13.1875 10.5625 -13.1875 10.5625 -12 8 C-8.71023192 6.90341064 -7.28696233 7.20046862 -4 8 C-4 7.01 -4 6.02 -4 5 C-3.34 5 -2.68 5 -2 5 C-1.855625 4.360625 -1.71125 3.72125 -1.5625 3.0625 C-1 1 -1 1 0 0 Z " fill="#E41A23" transform="translate(335,140)"/>
<path d="M0 0 C0.58394531 0.31195313 1.16789062 0.62390625 1.76953125 0.9453125 C4.8651464 2.40908849 7.86351423 2.6860111 11.25 3.125 C12.51328125 3.29257812 13.7765625 3.46015625 15.078125 3.6328125 C16.04234375 3.75398438 17.0065625 3.87515625 18 4 C18 4.66 18 5.32 18 6 C22.62 6 27.24 6 32 6 C32 6.33 32 6.66 32 7 C17.67581522 8.07971242 3.96699626 4.86127852 -10 2 C-6.29873141 -0.46751239 -4.37776468 -0.30721156 0 0 Z " fill="#5B739E" transform="translate(286,343)"/>
<path d="M0 0 C0.33 1.32 0.66 2.64 1 4 C0.0409375 4.433125 0.0409375 4.433125 -0.9375 4.875 C-3.15206079 5.82823451 -3.15206079 5.82823451 -4 8 C-4.99 7.67 -5.98 7.34 -7 7 C-7.66 8.32 -8.32 9.64 -9 11 C-9.99 11 -10.98 11 -12 11 C-12.33 12.32 -12.66 13.64 -13 15 C-13.66 15 -14.32 15 -15 15 C-15.33 14.01 -15.66 13.02 -16 12 C-10.94783982 7.28006804 -6.17398461 3.15267299 0 0 Z " fill="#15386E" transform="translate(393,159)"/>
<path d="M0 0 C0.33 0.66 0.66 1.32 1 2 C-0.2739589 4.03833424 -1.61061923 6.03852126 -3 8 C-3.66 8 -4.32 8 -5 8 C-4.67 9.65 -4.34 11.3 -4 13 C-7 13 -7 13 -9 12 C-9 13.65 -9 15.3 -9 17 C-9.639375 17.12375 -10.27875 17.2475 -10.9375 17.375 C-11.618125 17.58125 -12.29875 17.7875 -13 18 C-13.33 18.66 -13.66 19.32 -14 20 C-14.66 20 -15.32 20 -16 20 C-14.5 17 -14.5 17 -13 14 C-12.34 14 -11.68 14 -11 14 C-10.731875 13.360625 -10.46375 12.72125 -10.1875 12.0625 C-9 10 -9 10 -6 9 C-5.87625 8.4225 -5.7525 7.845 -5.625 7.25 C-4.70302589 3.93089319 -2.48202881 2.29110352 0 0 Z " fill="#DE272C" transform="translate(334,226)"/>
<path d="M0 0 C0.99 0.495 1.98 0.99 3 1.5 C-0.43379644 2.64459881 -1.52312446 2.19537511 -5 1.5 C-9.15358094 1.36381702 -13.01864607 1.45793164 -17.125 2.0625 C-20.75248551 2.47205482 -23.4640529 2.2955881 -27 1.5 C-19.96275239 -3.19149841 -7.82402802 -2.98863773 0 0 Z " fill="#0D2C5E" transform="translate(430,154.5)"/>
<path d="M0 0 C0.33 0 0.66 0 1 0 C1 10.89 1 21.78 1 33 C0.67 33 0.34 33 0 33 C-0.33 24.42 -0.66 15.84 -1 7 C-1.99 6.67 -2.98 6.34 -4 6 C-3.67 5.01 -3.34 4.02 -3 3 C-2.34 3 -1.68 3 -1 3 C-0.67 2.01 -0.34 1.02 0 0 Z " fill="#D6363F" transform="translate(351,203)"/>
<path d="M0 0 C0.66 0 1.32 0 2 0 C1.43684264 3.0035059 0.74522631 5.93052255 -0.0625 8.875 C-1.68652629 15.34686597 -0.91476698 21.48228524 0 28 C-3.96134883 22.05797675 -3.4796734 15.93128068 -3 9 C-2.2489612 5.80808509 -1.24044683 3.04943179 0 0 Z " fill="#0C295D" transform="translate(209,173)"/>
<path d="M0 0 C0.99 0.33 1.98 0.66 3 1 C4.62083692 5.21417599 5.72215001 8.69462499 4 13 C0.91657224 15.03506232 -1.14598301 15.1550025 -4.75 14.625 C-5.54921875 14.51414063 -6.3484375 14.40328125 -7.171875 14.2890625 C-8.07679688 14.14597656 -8.07679688 14.14597656 -9 14 C-9 13.67 -9 13.34 -9 13 C-3.555 12.505 -3.555 12.505 2 12 C1.34 8.04 0.68 4.08 0 0 Z " fill="#082D64" transform="translate(469,159)"/>
<path d="M0 0 C-0.33 0.99 -0.66 1.98 -1 3 C-1.99 3.33 -2.98 3.66 -4 4 C-4.33 4.66 -4.66 5.32 -5 6 C-5.66 6 -6.32 6 -7 6 C-7 6.99 -7 7.98 -7 9 C-7.99 9 -8.98 9 -10 9 C-10.33 10.32 -10.66 11.64 -11 13 C-11.66 13 -12.32 13 -13 13 C-11.22477343 6.68808332 -6.77603872 0 0 0 Z " fill="#0E3267" transform="translate(374,179)"/>
<path d="M0 0 C0.33 0.99 0.66 1.98 1 3 C-0.94830271 6.3399475 -2.98447394 9.53275141 -6 12 C-6.66 12 -7.32 12 -8 12 C-8.66 13.32 -9.32 14.64 -10 16 C-10.66 15.67 -11.32 15.34 -12 15 C-10.01934336 11.43481804 -7.91547169 8.82972253 -5 6 C-3.29620523 4.02846605 -1.65031323 2.0170495 0 0 Z " fill="#FEDCDB" transform="translate(348,127)"/>
<path d="M0 0 C1.11375 0.556875 1.11375 0.556875 2.25 1.125 C-1.19615385 5.925 -1.19615385 5.925 -4 6.9375 C-4.86625 7.0303125 -4.86625 7.0303125 -5.75 7.125 C-6.08 5.145 -6.41 3.165 -6.75 1.125 C-4.02098495 -0.69434337 -3.21400584 -1.02263822 0 0 Z " fill="#2B4F82" transform="translate(455.75,306.875)"/>
<path d="M0 0 C0.93779297 0.00322266 1.87558594 0.00644531 2.84179688 0.00976562 C4.30649414 0.02233398 4.30649414 0.02233398 5.80078125 0.03515625 C6.78884766 0.03966797 7.77691406 0.04417969 8.79492188 0.04882812 C11.23443599 0.06061322 13.67382814 0.07706614 16.11328125 0.09765625 C16.11328125 0.42765625 16.11328125 0.75765625 16.11328125 1.09765625 C15.076875 1.15824219 14.04046875 1.21882813 12.97265625 1.28125 C11.60285252 1.36568996 10.2330615 1.45033622 8.86328125 1.53515625 C7.84041016 1.59413086 7.84041016 1.59413086 6.796875 1.65429688 C3.44991086 1.86551306 0.34782309 2.23126111 -2.88671875 3.09765625 C-5.21972808 3.13653974 -7.55381676 3.14251975 -9.88671875 3.09765625 C-6.80878016 0.01971766 -4.15411564 -0.02517646 0 0 Z " fill="#2E4874" transform="translate(245.88671875,102.90234375)"/>
<path d="M0 0 C1.134375 0.020625 2.26875 0.04125 3.4375 0.0625 C3.4375 1.0525 3.4375 2.0425 3.4375 3.0625 C1.37577387 3.40058686 -0.6869203 3.73277361 -2.75 4.0625 C-4.47283203 4.3409375 -4.47283203 4.3409375 -6.23046875 4.625 C-9.06665393 4.99739477 -11.70969564 5.14846021 -14.5625 5.0625 C-12.50612388 2.28034407 -11.46457504 2.04561639 -7.9375 1.4375 C-6.82375 1.31375 -5.71 1.19 -4.5625 1.0625 C-3.5625 0.0625 -3.5625 0.0625 0 0 Z " fill="#455F89" transform="translate(378.5625,342.9375)"/>
<path d="M0 0 C0.66 0.33 1.32 0.66 2 1 C1.01 3.31 0.02 5.62 -1 8 C-1.99 8 -2.98 8 -4 8 C-3.01 8.33 -2.02 8.66 -1 9 C-1.33 9.99 -1.66 10.98 -2 12 C-2.99 12 -3.98 12 -5 12 C-5.33 12.66 -5.66 13.32 -6 14 C-5.62257767 7.83543524 -3.84129692 4.82624485 0 0 Z " fill="#1F3D71" transform="translate(157,127)"/>
<path d="M0 0 C1.32 0 2.64 0 4 0 C4 0.99 4 1.98 4 3 C3.24074219 3.12117188 2.48148437 3.24234375 1.69921875 3.3671875 C0.20841797 3.61855469 0.20841797 3.61855469 -1.3125 3.875 C-2.29863281 4.03742188 -3.28476562 4.19984375 -4.30078125 4.3671875 C-7.20059827 4.88085454 -7.20059827 4.88085454 -10 7 C-12.33199388 7.07905064 -14.66832622 7.08798769 -17 7 C-17 6.67 -17 6.34 -17 6 C-15.02 6 -13.04 6 -11 6 C-11 5.34 -11 4.68 -11 4 C-10.28972656 3.79503906 -9.57945312 3.59007813 -8.84765625 3.37890625 C-7.92855469 3.10949219 -7.00945312 2.84007813 -6.0625 2.5625 C-5.14597656 2.29566406 -4.22945313 2.02882813 -3.28515625 1.75390625 C-1.0597507 1.20973949 -1.0597507 1.20973949 0 0 Z " fill="#AD1E35" transform="translate(343,66)"/>
<path d="M0 0 C0.66 0.33 1.32 0.66 2 1 C1.67 1.66 1.34 2.32 1 3 C0.34 3 -0.32 3 -1 3 C-0.67 3.99 -0.34 4.98 0 6 C-2.85478326 7.90318884 -4.41941308 8.4619099 -7.6875 9.125 C-8.49574219 9.29257813 -9.30398437 9.46015625 -10.13671875 9.6328125 C-10.75160156 9.75398438 -11.36648437 9.87515625 -12 10 C-8.97704729 6.74451247 -5.79537691 4.31022942 -2 2 C-1.34 2 -0.68 2 0 2 C0 1.34 0 0.68 0 0 Z " fill="#56709A" transform="translate(218,57)"/>
<path d="M0 0 C0.33 0.66 0.66 1.32 1 2 C-1.76756757 9.61081081 -1.76756757 9.61081081 -5 12 C-5.66 12 -6.32 12 -7 12 C-5.63855967 6.80177328 -3.53269829 3.90456127 0 0 Z " fill="#1F3F72" transform="translate(464,237)"/>
<path d="M0 0 C2.46446682 0.82786944 4.65572814 1.85178521 7 3 C7 3.33 7 3.66 7 4 C5.10388566 3.85786703 3.20811606 3.71113093 1.3125 3.5625 C0.25675781 3.48128906 -0.79898437 3.40007812 -1.88671875 3.31640625 C-4.65086297 3.03548319 -7.28945741 2.59843148 -10 2 C-6.24171538 -0.50552308 -4.46348506 -0.37195709 0 0 Z " fill="#496489" transform="translate(286,343)"/>
<path d="M0 0 C4.05766511 0.15028389 6.3008948 0.40844945 9.4375 3.0625 C10.2109375 4.0215625 10.2109375 4.0215625 11 5 C8.44855176 5.93045933 7.25993522 6.08564091 4.640625 5.22265625 C3.85171875 4.83980469 3.0628125 4.45695313 2.25 4.0625 C1.45078125 3.68222656 0.6515625 3.30195313 -0.171875 2.91015625 C-0.77515625 2.60980469 -1.3784375 2.30945313 -2 2 C-1.34 1.34 -0.68 0.68 0 0 Z " fill="#1F3C6F" transform="translate(369,219)"/>
<path d="M0 0 C1.22602512 3.67807537 0.70295577 5.88243927 0.0625 9.6875 C-0.13214844 10.86699219 -0.32679688 12.04648438 -0.52734375 13.26171875 C-0.68332031 14.16535156 -0.83929688 15.06898438 -1 16 C-1.66 16 -2.32 16 -3 16 C-3.55353075 4.29384966 -3.55353075 4.29384966 0 0 Z " fill="#3C3868" transform="translate(355,197)"/>
<path d="M0 0 C1.45903258 0.30921884 2.91720722 0.62248799 4.375 0.9375 C5.18710937 1.11152344 5.99921875 1.28554688 6.8359375 1.46484375 C9 2 9 2 11 3 C11 3.66 11 4.32 11 5 C4.64948454 5.36637589 4.64948454 5.36637589 1.5625 3.625 C0 2 0 2 0 0 Z " fill="#45608B" transform="translate(383,32)"/>
<path d="M0 0 C-4.60803336 3.07202224 -8.32060178 5.50112337 -14 5 C-14 4.34 -14 3.68 -14 3 C-4.58997722 -1.77676538 -4.58997722 -1.77676538 0 0 Z " fill="#47608A" transform="translate(414,334)"/>
<path d="M0 0 C0.66 0.33 1.32 0.66 2 1 C1.01 2.32 0.02 3.64 -1 5 C-0.67 5.66 -0.34 6.32 0 7 C-0.99 7 -1.98 7 -3 7 C-3 7.66 -3 8.32 -3 9 C-3.99 9 -4.98 9 -6 9 C-6.33 7.68 -6.66 6.36 -7 5 C-4.69 3.35 -2.38 1.7 0 0 Z " fill="#082F67" transform="translate(444,261)"/>
<path d="M0 0 C2 1 2 1 3 3 C2.13375 3.61488281 2.13375 3.61488281 1.25 4.2421875 C0.5075 4.78101563 -0.235 5.31984375 -1 5.875 C-1.7425 6.40867188 -2.485 6.94234375 -3.25 7.4921875 C-3.8275 7.98976563 -4.405 8.48734375 -5 9 C-5 9.66 -5 10.32 -5 11 C-5.99 10.67 -6.98 10.34 -8 10 C-6.44303593 6.17836093 -3.96591316 3.81381505 -1 1 C-0.67 0.67 -0.34 0.34 0 0 Z " fill="#103265" transform="translate(456,249)"/>
<path d="M0 0 C3.9126984 1.3042328 6.37310241 2.78934739 9 6 C9 6.99 9 7.98 9 9 C8.01 9 7.02 9 6 9 C5.67 8.01 5.34 7.02 5 6 C4.34 5.690625 3.68 5.38125 3 5.0625 C1 4 1 4 0.25 1.875 C0.1675 1.25625 0.085 0.6375 0 0 Z " fill="#0E2E62" transform="translate(442,161)"/>
<path d="M0 0 C3.66060821 0.58536753 5.54535164 2.083239 8.25 4.5625 C8.95640625 5.20316406 9.6628125 5.84382813 10.390625 6.50390625 C10.92171875 6.99761719 11.4528125 7.49132812 12 8 C11.01 8.33 10.02 8.66 9 9 C6.8125 7.6875 6.8125 7.6875 5 6 C5 5.34 5 4.68 5 4 C4.360625 3.896875 3.72125 3.79375 3.0625 3.6875 C2.381875 3.460625 1.70125 3.23375 1 3 C0.67 2.01 0.34 1.02 0 0 Z " fill="#3F5E86" transform="translate(458,70)"/>
<path d="M0 0 C0.66 0.33 1.32 0.66 2 1 C2 1.99 2 2.98 2 4 C2.66 3.34 3.32 2.68 4 2 C3.67 3.65 3.34 5.3 3 7 C2.34 7 1.68 7 1 7 C0.67 7.66 0.34 8.32 0 9 C0 8.34 0 7.68 0 7 C-0.99 7.33 -1.98 7.66 -3 8 C-3 6.35 -3 4.7 -3 3 C-2.34 3 -1.68 3 -1 3 C-0.67 2.01 -0.34 1.02 0 0 Z " fill="#30558D" transform="translate(501,249)"/>
<path d="M0 0 C2.54288247 1.27144124 2.85625863 2.4011826 4.0625 4.9375 C4.40410156 5.64777344 4.74570313 6.35804688 5.09765625 7.08984375 C5.39542969 7.72019531 5.69320312 8.35054687 6 9 C6.33 9.66 6.66 10.32 7 11 C6.34 11.66 5.68 12.32 5 13 C1.09711315 10.39807543 1.00476755 8.48280907 0 4 C0 2.68 0 1.36 0 0 Z " fill="#0F3167" transform="translate(200,231)"/>
<path d="M0 0 C6.70212766 1.93617021 6.70212766 1.93617021 9 5 C9 5.66 9 6.32 9 7 C9.66 7.33 10.32 7.66 11 8 C6.92453987 8 5.19463638 6.44695552 2 4 C0.625 1.75 0.625 1.75 0 0 Z " fill="#415B85" transform="translate(196,301)"/>
<path d="M0 0 C1.98 0.99 1.98 0.99 4 2 C3.01 2.495 3.01 2.495 2 3 C1.67 9.93 1.34 16.86 1 24 C0.67 24 0.34 24 0 24 C0 16.08 0 8.16 0 0 Z " fill="#F2C0C8" transform="translate(352,213)"/>
<path d="M0 0 C-0.78697325 3.41021743 -1.87119943 6.68885166 -3 10 C-3.66 9.67 -4.32 9.34 -5 9 C-4.67 7.68 -4.34 6.36 -4 5 C-4.66 4.67 -5.32 4.34 -6 4 C-2.25 0 -2.25 0 0 0 Z " fill="#072E64" transform="translate(200,139)"/>
<path d="M0 0 C-2.28855702 0.86343731 -4.5801928 1.7159811 -6.875 2.5625 C-7.52597656 2.80935547 -8.17695313 3.05621094 -8.84765625 3.31054688 C-10.54497665 3.93173115 -12.27156776 4.47152252 -14 5 C-14.66 4.67 -15.32 4.34 -16 4 C-14.68 3.67 -13.36 3.34 -12 3 C-12 2.34 -12 1.68 -12 1 C-3.96428571 -1.27678571 -3.96428571 -1.27678571 0 0 Z " fill="#59739C" transform="translate(400,340)"/>
<path d="M0 0 C0.66 0 1.32 0 2 0 C1.58578031 4.83256305 -0.46413986 6.82679218 -4 10 C-4 8.35 -4 6.7 -4 5 C-3.34 5 -2.68 5 -2 5 C-2 4.34 -2 3.68 -2 3 C-1.34 3 -0.68 3 0 3 C0 2.01 0 1.02 0 0 Z " fill="#465F89" transform="translate(498,259)"/>
<path d="M0 0 C2 1 2 1 4 3 C4.36933645 5.75372909 4.18336678 8.20365661 4 11 C0.55783328 8.3401439 0.00495326 5.09711714 -1 1 C-0.67 0.67 -0.34 0.34 0 0 Z " fill="#16386D" transform="translate(466,148)"/>
<path d="M0 0 C1.32 0 2.64 0 4 0 C4 0.66 4 1.32 4 2 C4.763125 2.268125 5.52625 2.53625 6.3125 2.8125 C8.87380884 3.94424112 10.19692938 4.91223401 12 7 C10.68 7 9.36 7 8 7 C8 6.34 8 5.68 8 5 C6.8553125 4.814375 6.8553125 4.814375 5.6875 4.625 C3 4 3 4 0 2 C0 1.34 0 0.68 0 0 Z " fill="#495F86" transform="translate(440,57)"/>
<path d="M0 0 C0.33 0.66 0.66 1.32 1 2 C1.99 2.33 2.98 2.66 4 3 C4.33 3.99 4.66 4.98 5 6 C5.804375 6.7115625 5.804375 6.7115625 6.625 7.4375 C7.07875 7.953125 7.5325 8.46875 8 9 C7.6875 11.1875 7.6875 11.1875 7 13 C6.401875 12.0925 5.80375 11.185 5.1875 10.25 C3.14718226 7.12252644 3.14718226 7.12252644 1.25 4.8125 C0 3 0 3 0 0 Z " fill="#677A9F" transform="translate(162,260)"/>
<path d="M0 0 C2.09350689 3.4019487 2.17942163 6.05272412 2 10 C1.01 9.67 0.02 9.34 -1 9 C-1.33 9.66 -1.66 10.32 -2 11 C-1.125 3.375 -1.125 3.375 0 0 Z " fill="#54719C" transform="translate(146,155)"/>
<path d="M0 0 C0.66 0.99 1.32 1.98 2 3 C1.34 3 0.68 3 0 3 C-0.33 4.65 -0.66 6.3 -1 8 C-2.98 8.66 -4.96 9.32 -7 10 C-5.7260411 7.96166576 -4.38938077 5.96147874 -3 4 C-2.34 4 -1.68 4 -1 4 C-0.67 2.68 -0.34 1.36 0 0 Z " fill="#5D779A" transform="translate(182,87)"/>
<path d="M0 0 C-0.33 0.99 -0.66 1.98 -1 3 C-4.3 3.33 -7.6 3.66 -11 4 C-7.65667474 -0.27945633 -5.29105716 -0.4070044 0 0 Z " fill="#446292" transform="translate(235,51)"/>
<path d="M0 0 C0.33 0.66 0.66 1.32 1 2 C-0.2739589 4.03833424 -1.61061923 6.03852126 -3 8 C-3.66 8 -4.32 8 -5 8 C-5 8.66 -5 9.32 -5 10 C-6.32 10.33 -7.64 10.66 -9 11 C-8.67 10.34 -8.34 9.68 -8 9 C-7.34 9 -6.68 9 -6 9 C-5.9071875 8.1646875 -5.9071875 8.1646875 -5.8125 7.3125 C-4.66626128 4.05012827 -2.50609803 2.31332126 0 0 Z " fill="#D62A33" transform="translate(334,226)"/>
<path d="M0 0 C0.66 0 1.32 0 2 0 C0.54821438 3.38749978 -1.36940603 5.45161209 -4 8 C-4.66 8.99 -5.32 9.98 -6 11 C-5.5020163 7.26512223 -5.12508244 5.18762365 -3 2 C-2.01 2 -1.02 2 0 2 C0 1.34 0 0.68 0 0 Z " fill="#FED9D7" transform="translate(333,224)"/>
<path d="M0 0 C2 4 2 4 2 8 C3.91859167 10.73219193 3.91859167 10.73219193 6 13 C4.02 12.34 2.04 11.68 0 11 C0 7.37 0 3.74 0 0 Z " fill="#082D62" transform="translate(354,203)"/>
<path d="M0 0 C0.66 0 1.32 0 2 0 C1.69381595 3.67420866 1.24228216 4.78135513 -1.5625 7.3125 C-2.366875 7.869375 -3.17125 8.42625 -4 9 C-4 4.9666466 -2.39120082 3.16482462 0 0 Z " fill="#FDDAD8" transform="translate(321,161)"/>
<path d="M0 0 C0.33 0.66 0.66 1.32 1 2 C1.66 2 2.32 2 3 2 C3.33 4.64 3.66 7.28 4 10 C3.34 10 2.68 10 2 10 C0.39644899 6.49223216 -0.22036864 3.85645121 0 0 Z " fill="#48608E" transform="translate(514,156)"/>
<path d="M0 0 C0.144375 0.61875 0.28875 1.2375 0.4375 1.875 C0.93152225 4.03258322 0.93152225 4.03258322 2 6 C-2.75 10 -2.75 10 -5 10 C-4.42437172 6.66135596 -3.40936384 5.30897368 -1 3 C-0.67 2.01 -0.34 1.02 0 0 Z " fill="#FDD0D0" transform="translate(328,151)"/>
<path d="M0 0 C0.99 0.33 1.98 0.66 3 1 C3 1.99 3 2.98 3 4 C4.65 3.67 6.3 3.34 8 3 C7.34 4.65 6.68 6.3 6 8 C4.125 7.375 4.125 7.375 2 6 C0.75 2.875 0.75 2.875 0 0 Z " fill="#08316B" transform="translate(462,142)"/>
<path d="M0 0 C3.33717549 1.3809002 5.22301036 2.8201238 7 6 C6.6875 8.25 6.6875 8.25 6 10 C5.731875 9.195625 5.46375 8.39125 5.1875 7.5625 C4.795625 6.716875 4.40375 5.87125 4 5 C3.01 4.67 2.02 4.34 1 4 C0.3125 1.9375 0.3125 1.9375 0 0 Z " fill="#0D3163" transform="translate(448,121)"/>
<path d="M0 0 C0.99 0.33 1.98 0.66 3 1 C0.36 4.3 -2.28 7.6 -5 11 C-5.33 10.01 -5.66 9.02 -6 8 C-5.34 8 -4.68 8 -4 8 C-4 7.01 -4 6.02 -4 5 C-3.34 5 -2.68 5 -2 5 C-1.855625 4.360625 -1.71125 3.72125 -1.5625 3.0625 C-1 1 -1 1 0 0 Z " fill="#D63437" transform="translate(335,140)"/>
<path d="M0 0 C0 4.38968456 -2.12805101 5.76905739 -5 9 C-6.32 8.67 -7.64 8.34 -9 8 C-6.14723863 5.06799526 -3.34920216 2.35684596 0 0 Z " fill="#EDE3EA" transform="translate(358,119)"/>
<path d="M0 0 C0.66 0 1.32 0 2 0 C4.74375671 2.95481492 5 3.77471908 5 8 C5.99 8.33 6.98 8.66 8 9 C7.67 9.66 7.34 10.32 7 11 C3.11546098 8.41030732 2.13541865 6.12356704 0 2 C0 1.34 0 0.68 0 0 Z " fill="#133162" transform="translate(209,202)"/>
<path d="M0 0 C3.95820859 0.56545837 6.6659053 1.80902348 10 4 C6.19881294 5.26706235 4.6149628 4.57172296 1 3 C0.67 2.01 0.34 1.02 0 0 Z " fill="#102D62" transform="translate(380,266)"/>
<path d="M0 0 C1.32 0.66 2.64 1.32 4 2 C2.625 3.5 2.625 3.5 1 5 C0.34 5 -0.32 5 -1 5 C-1.33 5.66 -1.66 6.32 -2 7 C-2.33 6.01 -2.66 5.02 -3 4 C-2.67 3.34 -2.34 2.68 -2 2 C-1.34 2 -0.68 2 0 2 C0 1.34 0 0.68 0 0 Z " fill="#112F67" transform="translate(445,211)"/>
<path d="M0 0 C0 3.3 0 6.6 0 10 C-0.33 8.68 -0.66 7.36 -1 6 C-1.66 5.67 -2.32 5.34 -3 5 C-3.625 2.9375 -3.625 2.9375 -4 1 C-1 0 -1 0 0 0 Z " fill="#E7161E" transform="translate(351,209)"/>
<path d="M0 0 C3 1 3 1 6 3 C3.09399739 4.25664978 1.20395416 5 -2 5 C-2 3.68 -2 2.36 -2 1 C-1.34 0.67 -0.68 0.34 0 0 Z " fill="#042D6A" transform="translate(231,153)"/>
<path d="M0 0 C0.66 0 1.32 0 2 0 C1.67 1.65 1.34 3.3 1 5 C-0.98 5.33 -2.96 5.66 -5 6 C-3.38405168 3.95880212 -1.7143618 1.95927063 0 0 Z " fill="#43628E" transform="translate(194,76)"/>
<path d="M0 0 C0 0.66 0 1.32 0 2 C-2.64 2 -5.28 2 -8 2 C-8.33 1.34 -8.66 0.68 -9 0 C-5.62182575 -0.84454356 -3.32534757 -1.10844919 0 0 Z " fill="#04326A" transform="translate(256,332)"/>
<path d="M0 0 C-2.3125 2.0625 -2.3125 2.0625 -5 4 C-5.99 3.67 -6.98 3.34 -8 3 C-7.67 2.01 -7.34 1.02 -7 0 C-2.25 -1.125 -2.25 -1.125 0 0 Z " fill="#BD1B2F" transform="translate(326,74)"/>
<path d="M0 0 C0 0.33 0 0.66 0 1 C-6.93 2.485 -6.93 2.485 -14 4 C-14 3.34 -14 2.68 -14 2 C-9.35150485 -0.3992233 -5.08913926 -0.19957409 0 0 Z " fill="#44295B" transform="translate(332,71)"/>
<path d="M0 0 C0.66 1.32 1.32 2.64 2 4 C0.35 4.66 -1.3 5.32 -3 6 C-3 6.66 -3 7.32 -3 8 C-3.66 8 -4.32 8 -5 8 C-4.67 7.01 -4.34 6.02 -4 5 C-3.34 4.67 -2.68 4.34 -2 4 C-0.86649466 1.98330173 -0.86649466 1.98330173 0 0 Z " fill="#DC2C31" transform="translate(345,211)"/>
<path d="M0 0 C0.33 0 0.66 0 1 0 C2.75747614 4.50353262 3.19294408 8.17639811 3 13 C-0.01111938 8.48332093 -0.10067926 5.3360009 0 0 Z " fill="#E6F2FC" transform="translate(193,204)"/>
<path d="M0 0 C1.65 0 3.3 0 5 0 C5.33 0.66 5.66 1.32 6 2 C1.375 5 1.375 5 -2 5 C-2 4.34 -2 3.68 -2 3 C-1.34 3 -0.68 3 0 3 C0 2.01 0 1.02 0 0 Z " fill="#264174" transform="translate(371,107)"/>
<path d="M0 0 C0 0.33 0 0.66 0 1 C-6.4 2.23076923 -6.4 2.23076923 -9.4375 1.0625 C-9.953125 0.711875 -10.46875 0.36125 -11 0 C-6.53464227 -1.86921951 -4.33629181 -2.2956839 0 0 Z " fill="#4F628F" transform="translate(304,29)"/>
<path d="M0 0 C2.64 0 5.28 0 8 0 C6.68 1.32 5.36 2.64 4 4 C3.01 3.67 2.02 3.34 1 3 C0.67 2.01 0.34 1.02 0 0 Z " fill="#5B7BA3" transform="translate(430,322)"/>
<path d="M0 0 C1.32 0.33 2.64 0.66 4 1 C0.25 6.875 0.25 6.875 -2 8 C-1.67 7.05125 -1.34 6.1025 -1 5.125 C0.10159191 2.22937548 0.10159191 2.22937548 0 0 Z " fill="#516894" transform="translate(486,275)"/>
<path d="M0 0 C6.4 -0.36923077 6.4 -0.36923077 9.4375 1.5 C9.953125 1.995 10.46875 2.49 11 3 C9.54077307 2.88590407 8.08259402 2.75834456 6.625 2.625 C5.40683594 2.52058594 5.40683594 2.52058594 4.1640625 2.4140625 C2 2 2 2 0 0 Z " fill="#C2D0E4" transform="translate(239,268)"/>
<path d="M0 0 C0.99 0.33 1.98 0.66 3 1 C4.1875 3.5625 4.1875 3.5625 5 6 C4.01 5.34 3.02 4.68 2 4 C1.34 5.32 0.68 6.64 0 8 C0 5.36 0 2.72 0 0 Z " fill="#1E2E5F" transform="translate(353,240)"/>
<path d="M0 0 C2.475 0.495 2.475 0.495 5 1 C5 1.66 5 2.32 5 3 C5.99 3.33 6.98 3.66 8 4 C8 4.66 8 5.32 8 6 C7.34 6 6.68 6 6 6 C6 5.34 6 4.68 6 4 C5.195625 3.71125 4.39125 3.4225 3.5625 3.125 C1 2 1 2 0 0 Z " fill="#597096" transform="translate(212,314)"/>
<path d="M0 0 C1.98 0.66 3.96 1.32 6 2 C5.38125 2.28875 4.7625 2.5775 4.125 2.875 C1.86674235 3.93720042 1.86674235 3.93720042 0 6 C-0.38218767 4.34385343 -0.71395102 2.67542976 -1 1 C-0.67 0.67 -0.34 0.34 0 0 Z " fill="#032E69" transform="translate(227,264)"/>
<path d="M0 0 C1.485 0.99 1.485 0.99 3 2 C3 2.66 3 3.32 3 4 C3.99 4 4.98 4 6 4 C6.33 4.99 6.66 5.98 7 7 C2.25 5.125 2.25 5.125 0 4 C0 2.68 0 1.36 0 0 Z " fill="#243E6B" transform="translate(363,251)"/>
<path d="M0 0 C1.98 0.99 1.98 0.99 4 2 C3.67 3.98 3.34 5.96 3 8 C0.4345406 5.4345406 0.45953913 3.52313332 0 0 Z " fill="#1D3E71" transform="translate(153,240)"/>
<path d="M0 0 C3.63 0.66 7.26 1.32 11 2 C11 2.33 11 2.66 11 3 C7.7 3 4.4 3 1 3 C0.67 2.01 0.34 1.02 0 0 Z " fill="#D9E5EF" transform="translate(377,225)"/>
<path d="M0 0 C0.33 0 0.66 0 1 0 C1 1.98 1 3.96 1 6 C1.99 5.67 2.98 5.34 4 5 C3.34 6.65 2.68 8.3 2 10 C1.34 9.67 0.68 9.34 0 9 C0 6.03 0 3.06 0 0 Z " fill="#D92A30" transform="translate(310,166)"/>
<path d="M0 0 C0.33 0.99 0.66 1.98 1 3 C1.66 3 2.32 3 3 3 C2.67 3.99 2.34 4.98 2 6 C1.01 6 0.02 6 -1 6 C-1.33 6.66 -1.66 7.32 -2 8 C-1.125 1.125 -1.125 1.125 0 0 Z " fill="#5674A1" transform="translate(153,133)"/>
<path d="M0 0 C0.66 0.99 1.32 1.98 2 3 C1.34 3 0.68 3 0 3 C-0.33 4.32 -0.66 5.64 -1 7 C-1.66 7 -2.32 7 -3 7 C-3.33 7.66 -3.66 8.32 -4 9 C-3.67 7.35 -3.34 5.7 -3 4 C-2.34 4 -1.68 4 -1 4 C-0.67 2.68 -0.34 1.36 0 0 Z " fill="#647BA1" transform="translate(161,117)"/>
<path d="M0 0 C0.33 0.99 0.66 1.98 1 3 C0.01 3.99 -0.98 4.98 -2 6 C-2.99 5.67 -3.98 5.34 -5 5 C-3.35 3.35 -1.7 1.7 0 0 Z " fill="#072A68" transform="translate(203,70)"/>
<path d="M0 0 C1.32 0.66 2.64 1.32 4 2 C3.34 3.32 2.68 4.64 2 6 C0.68 5.34 -0.64 4.68 -2 4 C-1.34 3.67 -0.68 3.34 0 3 C0 2.01 0 1.02 0 0 Z " fill="#043069" transform="translate(450,64)"/>
<path d="M0 0 C-2.75924185 1.80411967 -3.88972103 2.0127245 -7.25 1.625 C-8.1575 1.41875 -9.065 1.2125 -10 1 C-6.1496895 -1.56687367 -4.41430237 -0.83288724 0 0 Z " fill="#27497B" transform="translate(401,37)"/>
<path d="M0 0 C-3.00617269 3.00617269 -5.82381598 2.59585316 -10 3 C-6.68152292 -0.06320961 -4.44849969 -0.3033068 0 0 Z " fill="#08275B" transform="translate(285,32)"/>
<path d="" fill="#FFFFFF" transform="translate(0,0)"/>
<path d="" fill="#FFFFFF" transform="translate(0,0)"/>
<path d="" fill="#FFFFFF" transform="translate(0,0)"/>
<path d="" fill="#FFFFFF" transform="translate(0,0)"/>
<path d="" fill="#FFFFFF" transform="translate(0,0)"/>
<path d="" fill="#FFFFFF" transform="translate(0,0)"/>
<path d="" fill="#FFFFFF" transform="translate(0,0)"/>
<path d="" fill="#FFFFFF" transform="translate(0,0)"/>
<path d="" fill="#FFFFFF" transform="translate(0,0)"/>
<path d="" fill="#FFFFFF" transform="translate(0,0)"/>
<path d="" fill="#FFFFFF" transform="translate(0,0)"/>
<path d="" fill="#FFFFFF" transform="translate(0,0)"/>
<path d="" fill="#FFFFFF" transform="translate(0,0)"/>
<path d="" fill="#FFFFFF" transform="translate(0,0)"/>
<path d="" fill="#FFFFFF" transform="translate(0,0)"/>
<path d="" fill="#FFFFFF" transform="translate(0,0)"/>
<path d="" fill="#FFFFFF" transform="translate(0,0)"/>
<path d="" fill="#FFFFFF" transform="translate(0,0)"/>
<path d="" fill="#FFFFFF" transform="translate(0,0)"/>
<path d="" fill="#FFFFFF" transform="translate(0,0)"/>
<path d="" fill="#FFFFFF" transform="translate(0,0)"/>
<path d="" fill="#FFFFFF" transform="translate(0,0)"/>
<path d="" fill="#FFFFFF" transform="translate(0,0)"/>
<path d="" fill="#FFFFFF" transform="translate(0,0)"/>
<path d="" fill="#FFFFFF" transform="translate(0,0)"/>
<path d="" fill="#FFFFFF" transform="translate(0,0)"/>
<path d="" fill="#FFFFFF" transform="translate(0,0)"/>
<path d="" fill="#FFFFFF" transform="translate(0,0)"/>
<path d="" fill="#FFFFFF" transform="translate(0,0)"/>
<path d="" fill="#FFFFFF" transform="translate(0,0)"/>
<path d="" fill="#FFFFFF" transform="translate(0,0)"/>
<path d="" fill="#FFFFFF" transform="translate(0,0)"/>
<path d="" fill="#FFFFFF" transform="translate(0,0)"/>
<path d="" fill="#FFFFFF" transform="translate(0,0)"/>
<path d="" fill="#FFFFFF" transform="translate(0,0)"/>
<path d="" fill="#FFFFFF" transform="translate(0,0)"/>
<path d="" fill="#FFFFFF" transform="translate(0,0)"/>
<path d="" fill="#FFFFFF" transform="translate(0,0)"/>
<path d="" fill="#FFFFFF" transform="translate(0,0)"/>
</svg>
