<svg xmlns="http://www.w3.org/2000/svg" viewBox="0 0 120 120">
  <g fill-rule="evenodd" clip-rule="evenodd">
    <path d="M83.47 0h5.547c.464.143.957.08 1.43.163 6.31.614 12.565 2.508 17.907 5.97 2.153 1.391 4.115 3.066 5.892 4.91 1.362 1.541 2.665 3.148 3.724 4.917.685 1.048 1.214 2.184 1.775 3.3 1.625 3.484 2.596 7.256 2.98 11.075.105.617.057 1.247.167 1.864.059.75.008 1.503.023 2.256-.02.869.063 1.745-.083 2.606-.087 2.225-.428 4.433-.843 6.62-.229 1.304-.632 2.568-.891 3.865-2.626 10.512-5.256 21.025-7.884 31.537-.43 1.948-.956 3.873-1.425 5.812-.323 1.244-.637 2.524-1.36 3.608-.528.85-1.223 1.584-1.986 2.227-1.825 1.457-4.176 2.14-6.49 2.162-.983-.088-1.975-.215-2.912-.543-.978-.385-1.963-.85-2.675-1.647-1.032-.91-1.591-2.278-1.676-3.634-.114-.852.124-1.701.334-2.52 1.246-4.983 2.49-9.966 3.738-14.948.543-2.104 1.012-4.226 1.553-6.33 1.813-7.257 3.631-14.514 5.443-21.773.44-1.777.712-3.593.84-5.418-.031-1.406.08-2.819-.102-4.216-.186-1.748-.58-3.484-1.265-5.108-.6-1.577-1.524-3.016-2.635-4.28-.315-.477-.825-.756-1.206-1.168a4.845 4.845 0 0 0-.57-.508c-1.172-.892-2.423-1.707-3.793-2.26-1.191-.587-2.462-.999-3.746-1.33-1.777-.509-3.61-.838-5.458-.924-.825-.149-1.665-.056-2.496-.087-.655-.031-1.294.142-1.947.123a34.801 34.801 0 0 0-8.95 2.054c-1.902.662-3.703 1.568-5.474 2.517-2.108 1.254-4.155 2.635-5.962 4.3-.624.636-1.263 1.258-1.888 1.893-1.218 1.421-2.363 2.943-3.086 4.683-.78 2.54-1.438 5.117-2.154 7.677-.87 3.311-1.763 6.615-2.595 9.936-1.004 3.756-1.915 7.538-2.977 11.28-.48 1.569-.964 3.138-1.45 4.706-.222.858-.402 1.742-.813 2.535-1.292 2.83-4.097 4.855-7.14 5.385-2.073.404-4.324.125-6.129-1.012-.525-.405-1.095-.78-1.476-1.334-.8-.934-1.251-2.124-1.414-3.334-.023-.57-.247-1.16-.001-1.713 2.478-8.123 4.447-16.389 6.614-24.598 1.205-4.63 2.406-9.261 3.755-13.852.298-1.124.788-2.186 1.322-3.215 1.456-3.052 3.464-5.815 5.716-8.327.883-.88 1.762-1.765 2.647-2.644 1.404-1.195 2.79-2.418 4.315-3.46.764-.629 1.64-1.093 2.45-1.656 3.237-2.053 6.71-3.72 10.313-5.024.89-.296 1.756-.668 2.667-.9 1.915-.567 3.85-1.076 5.817-1.422C79.01.477 80.56.336 82.1.126c.456-.052.927.021 1.37-.126z" fill="#00579c"/>
    <path d="M19.022 15.795c.54-.019 1.07-.146 1.61-.138 1.408.128 2.84.336 4.129.952.881.475 1.762 1.037 2.305 1.905.78.987.833 2.338.587 3.523-.695 2.695-1.326 5.41-2.057 8.097-.809 3.255-1.625 6.509-2.438 9.763-.605 2.476-1.285 4.932-1.88 7.41-.704 2.824-1.417 5.644-2.116 8.47-.607 2.228-1.143 4.476-1.707 6.717-.638 2.409-1.14 4.873-1.175 7.373-.12.65-.09 1.31.007 1.96.039 2.615.627 5.217 1.715 7.595.528.96 1.048 1.935 1.75 2.783.543.609 1.035 1.269 1.68 1.777.714.55 1.38 1.17 2.175 1.608.832.53 1.717.964 2.609 1.384 2.007.79 4.087 1.406 6.214 1.775 1.981.285 3.99.479 5.992.319 5.015-.302 9.944-1.742 14.393-4.067 2.64-1.336 5.059-3.083 7.266-5.045 1.25-1.208 2.447-2.484 3.408-3.939.585-.89 1.214-1.787 1.485-2.832 2.636-9.106 4.868-18.32 7.31-27.476.501-1.807 1.106-3.583 1.635-5.382.504-1.661 1.287-3.264 2.45-4.566.617-.828 1.468-1.441 2.325-1.999 1.843-1.182 4.098-1.63 6.263-1.423 1.038.125 2.077.379 3 .887 1.148.537 2.152 1.426 2.74 2.557.578 1.066.59 2.351.334 3.51-1.644 5.477-3.105 11.007-4.516 16.548-1.946 7.455-3.818 14.932-5.964 22.334-.185.67-.464 1.31-.76 1.938-.511 1.232-1.181 2.392-1.87 3.533-1.224 1.998-2.62 3.895-4.22 5.608-.653.819-1.457 1.499-2.174 2.26-1.432 1.309-2.913 2.574-4.486 3.718-2.471 1.828-5.14 3.377-7.888 4.747-1.274.57-2.53 1.18-3.839 1.672-1.136.493-2.332.827-3.494 1.251-1.798.583-3.632 1.03-5.474 1.441-.7.138-1.41.227-2.107.377-1.074.192-2.163.272-3.239.438-.552.099-1.126-.025-1.665.15h-5.547a2.556 2.556 0 0 0-.629-.102c-.794-.015-1.571-.203-2.363-.246-2.396-.325-4.774-.808-7.075-1.554-2.592-.75-5.063-1.873-7.433-3.153-1.71-.978-3.32-2.118-4.849-3.359-.471-.428-.99-.807-1.423-1.28-.683-.719-1.445-1.366-2.062-2.148-4.13-4.69-6.724-10.652-7.582-16.828C.2 75.66.172 74.662 0 73.685v-5.662c.101-.377.092-.768.132-1.151.29-2.777.704-5.555 1.464-8.247 1.176-4.627 2.287-9.272 3.504-13.888.926-3.717 1.856-7.432 2.786-11.148.875-3.263 1.648-6.554 2.484-9.827.22-.81.346-1.654.717-2.413.423-.867.874-1.749 1.578-2.424.347-.335.672-.693 1.037-1.009 1.502-1.229 3.403-1.915 5.32-2.121z" fill="#da251c"/>
  </g>
</svg>